<svg preserveAspectRatio="none" overflow="visible" style="display: block;" width="21.5" height="21.5" viewBox="0 0 21.5 21.5" fill="none" xmlns="http://www.w3.org/2000/svg">
<g id="Group">
<path id="Vector" d="M10.75 20.75C16.273 20.75 20.75 16.273 20.75 10.75C20.75 5.227 16.273 0.75 10.75 0.75C5.227 0.75 0.75 5.227 0.75 10.75C0.75 16.273 5.227 20.75 10.75 20.75Z" stroke="#21281A" stroke-width="1.5"/>
<path id="Vector_2" d="M10.758 9.258C10.3602 9.258 9.97864 9.41604 9.69734 9.69734C9.41604 9.97864 9.258 10.3602 9.258 10.758C9.258 11.1558 9.41604 11.5374 9.69734 11.8187C9.97864 12.1 10.3602 12.258 10.758 12.258C11.1558 12.258 11.5374 12.1 11.8187 11.8187C12.1 11.5374 12.258 11.1558 12.258 10.758C12.258 10.3602 12.1 9.97864 11.8187 9.69734C11.5374 9.41604 11.1558 9.258 10.758 9.258ZM10.758 9.258V5.75M13.765 13.77L11.816 11.822" stroke="#21281A" stroke-width="1.5" stroke-linecap="round" stroke-linejoin="round"/>
</g>
</svg>
