<svg preserveAspectRatio="none" overflow="visible" style="display: block;" width="7.12058" height="6.81099" viewBox="0 0 7.12058 6.81099" fill="none" xmlns="http://www.w3.org/2000/svg">
<path id="Vector" d="M6.51167 0.639844C6.14696 0.255014 5.65729 0.0275729 5.13976 0.00262109C4.62222 -0.0223307 4.11462 0.157029 3.71761 0.505134C3.67194 0.54118 3.61693 0.561965 3.55978 0.564769C3.50228 0.563015 3.44681 0.542124 3.40145 0.505134C3.00461 0.156831 2.49705 -0.0226627 1.97953 0.00229275C1.46202 0.0272482 0.972398 0.254828 0.607899 0.639844C0.414546 0.840959 0.261259 1.08019 0.156914 1.34368C0.0525691 1.60717 -0.000762078 1.8897 8.22689e-06 2.17489C8.22689e-06 2.75473 0.215876 3.29995 0.594662 3.69503L2.86636 6.476C2.95196 6.58103 3.05834 6.66537 3.17815 6.7232C3.29795 6.78104 3.42834 6.81099 3.56029 6.81099C3.69225 6.81099 3.82263 6.78104 3.94244 6.7232C4.06224 6.66537 4.16862 6.58103 4.25422 6.476L6.51217 3.70994C6.70557 3.50883 6.85892 3.26962 6.96335 3.00613C7.06778 2.74264 7.12122 2.46011 7.12057 2.17489C7.12101 1.88965 7.06743 1.60714 6.96292 1.34368C6.85841 1.08021 6.70504 0.840995 6.51167 0.639844V0.639844ZM6.14408 3.35426L3.87238 6.13524C3.71608 6.32692 3.40348 6.32692 3.24718 6.13524L0.962247 3.33935C0.815635 3.18676 0.699421 3.00527 0.620332 2.80539C0.541243 2.60551 0.50085 2.39121 0.501492 2.17489C0.501492 1.73509 0.66492 1.32138 0.962247 1.01043C1.10838 0.856525 1.28216 0.734349 1.47359 0.650922C1.66503 0.567496 1.87034 0.524464 2.07773 0.524302C2.4419 0.524059 2.79457 0.65768 3.07408 0.901808C3.09495 0.920976 3.2818 1.0887 3.55978 1.0887C3.83013 1.0887 4.02105 0.923638 4.03836 0.907665C4.33933 0.643625 4.72423 0.507574 5.11665 0.526511C5.50908 0.545448 5.88036 0.71799 6.15681 1.00989C6.30398 1.16422 6.42047 1.34751 6.49956 1.54918C6.57864 1.75084 6.61875 1.96689 6.61756 2.18485C6.61638 2.40281 6.57393 2.61837 6.49266 2.81909C6.4114 3.0198 6.29292 3.20169 6.14408 3.35426V3.35426Z" fill="#CBB7B5"/>
</svg>
