<svg width="466" height="222" viewBox="0 0 466 222" fill="none" xmlns="http://www.w3.org/2000/svg">
<path d="M16.6307 50.7591C16.6307 52.3881 16.7621 53.5703 17.0248 54.306C17.3401 55.0416 17.8918 55.5408 18.68 55.8035C19.5207 56.0663 20.8344 56.1976 22.6209 56.1976C22.7786 56.1976 22.8574 56.3553 22.8574 56.6705C22.8574 56.9858 22.7786 57.1435 22.6209 57.1435C20.9395 57.1435 19.5995 57.1172 18.6012 57.0646L12.7686 56.9858L7.09367 57.0646C6.0953 57.1172 4.72911 57.1435 2.99511 57.1435C2.83747 57.1435 2.75865 56.9858 2.75865 56.6705C2.75865 56.3553 2.83747 56.1976 2.99511 56.1976C4.78166 56.1976 6.06903 56.0663 6.85721 55.8035C7.69795 55.5408 8.27595 55.0416 8.59122 54.306C8.9065 53.5178 9.06413 52.3355 9.06413 50.7591V14.2662C9.06413 12.6898 8.9065 11.5338 8.59122 10.7981C8.27595 10.0625 7.69795 9.56331 6.85721 9.30059C6.06903 8.98531 4.78166 8.82768 2.99511 8.82768C2.83747 8.82768 2.75865 8.67004 2.75865 8.35477C2.75865 8.03949 2.83747 7.88186 2.99511 7.88186L7.09367 7.96067C9.40568 8.06576 11.2973 8.11831 12.7686 8.11831C14.3975 8.11831 16.368 8.06576 18.68 7.96067L22.6209 7.88186C22.7786 7.88186 22.8574 8.03949 22.8574 8.35477C22.8574 8.67004 22.7786 8.82768 22.6209 8.82768C20.8869 8.82768 19.5995 8.98531 18.7588 9.30059C17.9181 9.61586 17.3401 10.1676 17.0248 10.9558C16.7621 11.6914 16.6307 12.8474 16.6307 14.4238V50.7591Z" fill="#1F2B1F"/>
<path d="M88.7688 57.1435C88.6111 57.1435 88.5323 56.9858 88.5323 56.6705C88.5323 56.3553 88.6111 56.1976 88.7688 56.1976C90.5028 56.1976 91.6851 55.8298 92.3156 55.0942C92.9462 54.306 93.2614 52.861 93.2614 50.7591V39.0152C93.2614 36.0726 92.736 33.892 91.6851 32.4732C90.6867 31.0545 89.1366 30.3451 87.0348 30.3451C85.3533 30.3451 83.6718 30.8181 81.9904 31.7639C80.3615 32.7097 78.9953 33.9971 77.8918 35.626L77.4977 34.6802C81.5437 28.795 86.0101 25.8525 90.8969 25.8525C93.6818 25.8525 95.8099 26.6669 97.2812 28.2959C98.805 29.8722 99.5669 32.2893 99.5669 35.5472V50.7591C99.5669 52.9135 99.8559 54.3585 100.434 55.0942C101.064 55.8298 102.273 56.1976 104.06 56.1976C104.27 56.1976 104.375 56.3553 104.375 56.6705C104.375 56.9858 104.27 57.1435 104.06 57.1435C102.746 57.1435 101.695 57.1172 100.907 57.0646L96.4142 56.9858L91.9215 57.0646C91.1333 57.1172 90.0824 57.1435 88.7688 57.1435ZM68.1971 57.1435C68.0395 57.1435 67.9607 56.9858 67.9607 56.6705C67.9607 56.3553 68.0395 56.1976 68.1971 56.1976C69.9837 56.1976 71.166 55.8298 71.744 55.0942C72.3745 54.3585 72.6898 52.9135 72.6898 50.7591V39.0152C72.6898 36.0726 72.1643 33.892 71.1134 32.4732C70.1151 31.0545 68.565 30.3451 66.4631 30.3451C64.7817 30.3451 63.1002 30.8181 61.4187 31.7639C59.7898 32.7097 58.4236 33.9971 57.3202 35.626L56.9261 34.6802C60.9721 28.795 65.4385 25.8525 70.3252 25.8525C73.1102 25.8525 75.2383 26.6407 76.7095 28.217C78.2334 29.7409 78.9953 31.9741 78.9953 34.9166V50.7591C78.9953 52.9135 79.3106 54.3585 79.9411 55.0942C80.5716 55.8298 81.7802 56.1976 83.5668 56.1976C83.7244 56.1976 83.8032 56.3553 83.8032 56.6705C83.8032 56.9858 83.7244 57.1435 83.5668 57.1435C82.2006 57.1435 81.1234 57.1172 80.3352 57.0646L75.8425 56.9858L71.3499 57.0646C70.5617 57.1172 69.5108 57.1435 68.1971 57.1435ZM47.9408 57.1435C47.7831 57.1435 47.7043 56.9858 47.7043 56.6705C47.7043 56.3553 47.7831 56.1976 47.9408 56.1976C49.7273 56.1976 50.9096 55.8298 51.4876 55.0942C52.0656 54.3585 52.3546 52.9135 52.3546 50.7591V35.7048C52.3546 34.0233 52.1444 32.7885 51.7241 32.0003C51.3562 31.2121 50.7257 30.8181 49.8324 30.8181C49.0442 30.8181 47.7306 31.2121 45.8915 32.0003H45.8127C45.6025 32.0003 45.4448 31.869 45.3398 31.6062C45.2347 31.3435 45.2609 31.1859 45.4186 31.1333L55.7438 26.0889C56.0591 25.9838 56.243 25.9313 56.2955 25.9313C56.8735 25.9313 57.4253 26.5881 57.9507 27.9018C58.4762 29.2154 58.7389 30.9231 58.7389 33.025V50.7591C58.7389 52.9135 59.0279 54.3585 59.6059 55.0942C60.2365 55.8298 61.445 56.1976 63.2316 56.1976C63.3892 56.1976 63.468 56.3553 63.468 56.6705C63.468 56.9858 63.3892 57.1435 63.2316 57.1435C61.9179 57.1435 60.867 57.1172 60.0788 57.0646L55.5862 56.9858L51.0147 57.0646C50.2791 57.1172 49.2544 57.1435 47.9408 57.1435Z" fill="#1F2B1F"/>
<path d="M130.579 57.6164C130.369 57.7215 130.132 57.774 129.87 57.774C128.924 57.774 128.057 57.1435 127.269 55.8824C126.48 54.5687 126.086 52.8347 126.086 50.6803V36.8083C126.086 33.5504 125.745 31.1859 125.062 29.7146C124.431 28.1908 123.406 27.4289 121.988 27.4289C120.254 27.4289 118.993 28.0857 118.204 29.3993C117.469 30.6604 117.022 32.0792 116.865 33.6555C116.549 36.3354 115.209 37.6753 112.845 37.6753C111.689 37.6753 110.822 37.4125 110.244 36.8871C109.718 36.3616 109.456 35.7048 109.456 34.9166C109.456 33.4453 110.323 32.0266 112.057 30.6604C113.843 29.2417 115.971 28.112 118.441 27.2712C120.963 26.3779 123.17 25.9313 125.062 25.9313C127.321 25.9313 129.108 26.6407 130.421 28.0594C131.787 29.4781 132.471 31.6062 132.471 34.4437V48.631C132.471 51.9414 133.495 53.5966 135.545 53.5966C136.333 53.5966 137.279 53.3602 138.382 52.8872H138.54C138.75 52.8872 138.881 53.0186 138.934 53.2813C138.986 53.4915 138.907 53.6492 138.697 53.7543L130.579 57.6164ZM115.761 57.6952C113.607 57.6952 111.978 57.196 110.874 56.1976C109.771 55.1993 109.219 53.8331 109.219 52.0991C109.219 50.6803 109.587 49.5243 110.323 48.631C111.111 47.7378 112.083 47.0284 113.239 46.5029C114.395 45.9249 116.129 45.2156 118.441 44.3748L126.874 41.2221L127.111 42.4044L121.357 44.8478C119.938 45.4258 118.809 46.0563 117.968 46.7394C117.127 47.4225 116.707 48.4471 116.707 49.8133C116.707 51.0744 117.101 52.0728 117.889 52.8084C118.73 53.5441 119.702 53.9119 120.805 53.9119C121.804 53.9119 122.828 53.5966 123.879 52.9661L128.136 50.1286L128.214 51.3109L122.618 55.2518C121.357 56.1451 120.201 56.7756 119.15 57.1435C118.152 57.5113 117.022 57.6952 115.761 57.6952Z" fill="#1F2B1F"/>
<path d="M140.504 57.1435C140.346 57.1435 140.267 56.9858 140.267 56.6705C140.267 56.3553 140.346 56.1976 140.504 56.1976C142.29 56.1976 143.473 55.8298 144.051 55.0942C144.681 54.3585 144.997 52.9135 144.997 50.7591V10.4829C144.997 8.64377 144.813 7.33012 144.445 6.54194C144.077 5.70121 143.473 5.28084 142.632 5.28084C141.844 5.28084 140.767 5.59612 139.4 6.22667H139.322C139.164 6.22667 139.006 6.0953 138.849 5.83257C138.744 5.5173 138.77 5.33339 138.928 5.28084L149.883 0.0788175L150.277 0C150.488 0 150.698 0.105092 150.908 0.315275C151.171 0.525458 151.302 0.709367 151.302 0.867002V50.7591C151.302 52.9135 151.591 54.3585 152.169 55.0942C152.8 55.8298 154.008 56.1976 155.795 56.1976C156.005 56.1976 156.11 56.3553 156.11 56.6705C156.11 56.9858 156.005 57.1435 155.795 57.1435C154.481 57.1435 153.43 57.1172 152.642 57.0646L148.149 56.9858L143.657 57.0646C142.868 57.1172 141.818 57.1435 140.504 57.1435ZM160.287 57.1435C160.182 57.1435 160.13 56.9858 160.13 56.6705C160.13 56.3553 160.182 56.1976 160.287 56.1976C162.494 56.1976 163.598 55.6722 163.598 54.6213C163.598 54.1483 163.361 53.5966 162.888 52.9661L153.194 40.2763L157.923 36.6506L168.721 50.7591C171.453 54.3848 174.37 56.1976 177.47 56.1976C177.627 56.1976 177.706 56.3553 177.706 56.6705C177.706 56.9858 177.627 57.1435 177.47 57.1435C176.156 57.1435 175.105 57.1172 174.317 57.0646L169.824 56.9858L163.913 57.0646C163.02 57.1172 161.811 57.1435 160.287 57.1435ZM148.543 43.7443L159.736 33.5767C161.207 32.3156 161.943 31.0808 161.943 29.8722C161.943 29.2417 161.627 28.7162 160.997 28.2959C160.419 27.8755 159.578 27.6653 158.475 27.6653C158.317 27.6653 158.238 27.5077 158.238 27.1924C158.238 26.8771 158.317 26.7195 158.475 26.7195C159.946 26.7195 161.102 26.7458 161.943 26.7983L167.933 26.8771L173.529 26.7983C174.265 26.7458 175.263 26.7195 176.524 26.7195C176.682 26.7195 176.76 26.8771 176.76 27.1924C176.76 27.5077 176.682 27.6653 176.524 27.6653C174.37 27.6653 171.926 28.217 169.194 29.3205C166.462 30.3714 163.939 31.9215 161.627 33.9708L148.938 44.9266L148.543 43.7443Z" fill="#1F2B1F"/>
<path d="M194.15 58.0893C190.945 58.0893 188.16 57.3799 185.796 55.9612C183.484 54.5424 181.697 52.6771 180.436 50.3651C179.227 48.053 178.623 45.5571 178.623 42.8773C178.623 39.7771 179.385 36.9396 180.909 34.3649C182.433 31.7902 184.508 29.7671 187.136 28.2959C189.815 26.772 192.784 26.0101 196.042 26.0101C199.195 26.0101 201.612 26.772 203.293 28.2959C205.027 29.8197 205.894 32.0792 205.894 35.0743C205.894 35.8624 205.816 36.4404 205.658 36.8083C205.553 37.1761 205.343 37.36 205.027 37.36H198.564C198.827 30.8443 197.04 27.5865 193.205 27.5865C190.84 27.5865 188.975 28.6637 187.608 30.8181C186.295 32.9724 185.638 35.8887 185.638 39.5669C185.638 44.1909 186.715 47.8691 188.87 50.6015C191.024 53.2813 194.072 54.6213 198.013 54.6213C199.484 54.6213 200.719 54.4373 201.717 54.0695C202.715 53.7017 204.029 53.0974 205.658 52.2567L205.816 52.1779C205.921 52.1779 206.026 52.283 206.131 52.4932C206.288 52.7033 206.315 52.861 206.21 52.9661C204.318 54.7526 202.4 56.0663 200.456 56.907C198.512 57.6952 196.41 58.0893 194.15 58.0893ZM183.273 36.0989L200.771 35.7836V37.36L183.352 37.4388L183.273 36.0989Z" fill="#1F2B1F"/>
<path d="M17.8918 129.089C14.4763 129.089 11.5601 128.354 9.14295 126.882C6.7784 125.359 5.01811 123.414 3.86211 121.05C2.7061 118.633 2.1281 116.11 2.1281 113.483C2.1281 110.173 3.02138 107.283 4.80793 104.813C6.59449 102.291 8.88022 100.373 11.6651 99.0594C14.5026 97.6932 17.3664 97.0101 20.2564 97.0101C22.726 97.0101 24.9329 97.5093 26.8771 98.5077C28.8739 99.506 29.8722 100.846 29.8722 102.527C29.8722 103.421 29.5307 104.183 28.8476 104.813C28.217 105.444 27.2975 105.759 26.0889 105.759C24.0397 105.759 22.5947 104.603 21.7539 102.291C21.281 100.977 20.7293 100.058 20.0987 99.5323C19.5207 98.9543 18.6012 98.6653 17.3401 98.6653C14.8704 98.6653 12.9 99.795 11.4287 102.055C10.01 104.261 9.30059 107.23 9.30059 110.961C9.30059 115.322 10.299 118.869 12.2957 121.602C14.345 124.281 17.524 125.621 21.8327 125.621C23.2515 125.621 24.5388 125.437 25.6948 125.07C26.9034 124.702 28.1908 124.124 29.557 123.336H29.6358C29.7934 123.336 29.9248 123.414 30.0299 123.572C30.1875 123.73 30.2138 123.861 30.1087 123.966C28.1645 125.7 26.2466 126.987 24.3549 127.828C22.4633 128.669 20.3089 129.089 17.8918 129.089Z" fill="#1F2B1F"/>
<path d="M50.6853 129.168C47.5325 129.168 44.7476 128.432 42.3305 126.961C39.9134 125.437 38.048 123.414 36.7344 120.892C35.4207 118.317 34.7639 115.532 34.7639 112.537C34.7639 109.122 35.6046 106.232 37.2861 103.867C39.0201 101.45 41.2008 99.6637 43.828 98.5077C46.5079 97.2991 49.2402 96.6948 52.0252 96.6948C55.2305 96.6948 58.0154 97.4568 60.3799 98.9806C62.797 100.504 64.6361 102.527 65.8972 105.05C67.1583 107.519 67.7889 110.173 67.7889 113.01C67.7889 116.163 67.0007 118.974 65.4243 121.444C63.9005 123.914 61.8249 125.831 59.1977 127.198C56.5704 128.511 53.7329 129.168 50.6853 129.168ZM53.0498 127.592C55.3618 127.592 57.1484 126.567 58.4095 124.518C59.6706 122.469 60.3011 119.473 60.3011 115.532C60.3011 112.012 59.8019 108.938 58.8036 106.311C57.8577 103.683 56.5441 101.687 54.8626 100.321C53.2337 98.9543 51.4209 98.2712 49.4242 98.2712C47.0596 98.2712 45.2468 99.2433 43.9857 101.188C42.7771 103.132 42.1729 105.995 42.1729 109.779C42.1729 113.194 42.6458 116.268 43.5916 119C44.5374 121.68 45.8248 123.782 47.4537 125.306C49.1352 126.83 51.0005 127.592 53.0498 127.592Z" fill="#1F2B1F"/>
<path d="M114.554 128.143C114.397 128.143 114.318 127.986 114.318 127.671C114.318 127.355 114.397 127.198 114.554 127.198C116.288 127.198 117.47 126.83 118.101 126.094C118.732 125.306 119.047 123.861 119.047 121.759V110.015C119.047 107.073 118.521 104.892 117.47 103.473C116.472 102.055 114.922 101.345 112.82 101.345C111.139 101.345 109.457 101.818 107.776 102.764C106.147 103.71 104.781 104.997 103.677 106.626L103.283 105.68C107.329 99.795 111.795 96.8525 116.682 96.8525C119.467 96.8525 121.595 97.6669 123.067 99.2959C124.59 100.872 125.352 103.289 125.352 106.547V121.759C125.352 123.914 125.641 125.359 126.219 126.094C126.85 126.83 128.058 127.198 129.845 127.198C130.055 127.198 130.16 127.355 130.16 127.671C130.16 127.986 130.055 128.143 129.845 128.143C128.531 128.143 127.48 128.117 126.692 128.065L122.2 127.986L117.707 128.065C116.919 128.117 115.868 128.143 114.554 128.143ZM93.9825 128.143C93.8249 128.143 93.746 127.986 93.746 127.671C93.746 127.355 93.8249 127.198 93.9825 127.198C95.7691 127.198 96.9513 126.83 97.5293 126.094C98.1599 125.359 98.4752 123.914 98.4752 121.759V110.015C98.4752 107.073 97.9497 104.892 96.8988 103.473C95.9004 102.055 94.3503 101.345 92.2485 101.345C90.567 101.345 88.8856 101.818 87.2041 102.764C85.5752 103.71 84.209 104.997 83.1055 106.626L82.7114 105.68C86.7575 99.795 91.2239 96.8525 96.1106 96.8525C98.8955 96.8525 101.024 97.6407 102.495 99.217C104.019 100.741 104.781 102.974 104.781 105.917V121.759C104.781 123.914 105.096 125.359 105.726 126.094C106.357 126.83 107.566 127.198 109.352 127.198C109.51 127.198 109.589 127.355 109.589 127.671C109.589 127.986 109.51 128.143 109.352 128.143C107.986 128.143 106.909 128.117 106.121 128.065L101.628 127.986L97.1352 128.065C96.3471 128.117 95.2961 128.143 93.9825 128.143ZM73.7261 128.143C73.5685 128.143 73.4897 127.986 73.4897 127.671C73.4897 127.355 73.5685 127.198 73.7261 127.198C75.5127 127.198 76.695 126.83 77.273 126.094C77.851 125.359 78.14 123.914 78.14 121.759V106.705C78.14 105.023 77.9298 103.789 77.5094 103C77.1416 102.212 76.5111 101.818 75.6178 101.818C74.8296 101.818 73.5159 102.212 71.6768 103H71.598C71.3878 103 71.2302 102.869 71.1251 102.606C71.02 102.344 71.0463 102.186 71.2039 102.133L81.5292 97.0889C81.8444 96.9839 82.0284 96.9313 82.0809 96.9313C82.6589 96.9313 83.2106 97.5881 83.7361 98.9018C84.2615 100.215 84.5243 101.923 84.5243 104.025V121.759C84.5243 123.914 84.8133 125.359 85.3913 126.094C86.0218 126.83 87.2304 127.198 89.0169 127.198C89.1746 127.198 89.2534 127.355 89.2534 127.671C89.2534 127.986 89.1746 128.143 89.0169 128.143C87.7033 128.143 86.6524 128.117 85.8642 128.065L81.3715 127.986L76.8001 128.065C76.0644 128.117 75.0398 128.143 73.7261 128.143Z" fill="#1F2B1F"/>
<path d="M133.586 149.819C133.428 149.819 133.349 149.661 133.349 149.346C133.349 149.03 133.428 148.873 133.586 148.873C134.899 148.873 135.871 148.715 136.502 148.4C137.133 148.137 137.553 147.638 137.763 146.902C138.026 146.167 138.157 145.011 138.157 143.434V106.784C138.157 105.05 137.947 103.789 137.527 103C137.159 102.212 136.502 101.818 135.556 101.818C134.663 101.818 133.402 102.186 131.773 102.922H131.615C131.405 102.922 131.247 102.816 131.142 102.606C131.037 102.344 131.037 102.16 131.142 102.055L141.546 97.0889C141.652 97.0364 141.783 97.0101 141.941 97.0101C142.676 97.0101 143.28 97.6669 143.753 98.9806C144.279 100.242 144.542 101.976 144.542 104.183V143.434C144.542 145.011 144.725 146.167 145.093 146.902C145.461 147.638 146.144 148.137 147.143 148.4C148.141 148.715 149.717 148.873 151.872 148.873C151.977 148.873 152.029 149.03 152.029 149.346C152.029 149.661 151.977 149.819 151.872 149.819C149.927 149.819 148.43 149.792 147.379 149.74L141.31 149.661L136.817 149.74C136.029 149.792 134.952 149.819 133.586 149.819ZM151.872 129.168C149.875 129.168 148.141 128.984 146.67 128.616C145.198 128.249 143.464 127.618 141.468 126.725L143.596 121.917C145.067 123.703 146.538 125.043 148.01 125.937C149.481 126.83 151.346 127.276 153.606 127.276C156.233 127.276 158.308 126.147 159.832 123.887C161.356 121.575 162.118 118.16 162.118 113.641C162.118 109.49 161.172 106.284 159.281 104.025C157.389 101.766 155.024 100.636 152.187 100.636C150.295 100.636 148.588 101.109 147.064 102.055C145.592 103 143.99 104.419 142.256 106.311L141.546 105.523C144.226 102.475 146.775 100.242 149.192 98.823C151.661 97.4042 154.184 96.6948 156.758 96.6948C158.965 96.6948 161.015 97.2728 162.906 98.4289C164.798 99.5849 166.295 101.266 167.399 103.473C168.555 105.68 169.133 108.255 169.133 111.197C169.133 115.349 168.24 118.764 166.453 121.444C164.719 124.124 162.538 126.094 159.911 127.355C157.284 128.564 154.604 129.168 151.872 129.168Z" fill="#1F2B1F"/>
<path d="M174.628 128.143C174.47 128.143 174.392 127.986 174.392 127.671C174.392 127.355 174.47 127.198 174.628 127.198C176.415 127.198 177.597 126.83 178.175 126.094C178.805 125.359 179.121 123.914 179.121 121.759V81.4829C179.121 79.6438 178.937 78.3301 178.569 77.5419C178.254 76.7012 177.676 76.2808 176.835 76.2808C176.047 76.2808 174.97 76.5961 173.603 77.2267H173.525C173.314 77.2267 173.157 77.0953 173.052 76.8326C172.947 76.5698 172.947 76.3859 173.052 76.2808L184.165 71.0788L184.48 71C184.691 71 184.927 71.1051 185.19 71.3153C185.452 71.5255 185.584 71.7094 185.584 71.867V121.759C185.584 123.914 185.873 125.359 186.451 126.094C187.081 126.83 188.29 127.198 190.076 127.198C190.234 127.198 190.313 127.355 190.313 127.671C190.313 127.986 190.234 128.143 190.076 128.143C188.763 128.143 187.712 128.117 186.924 128.065L182.352 127.986L177.781 128.065C176.993 128.117 175.942 128.143 174.628 128.143Z" fill="#1F2B1F"/>
<path d="M210.699 129.089C207.494 129.089 204.709 128.38 202.344 126.961C200.032 125.542 198.246 123.677 196.985 121.365C195.776 119.053 195.172 116.557 195.172 113.877C195.172 110.777 195.934 107.94 197.458 105.365C198.982 102.79 201.057 100.767 203.684 99.2959C206.364 97.772 209.333 97.0101 212.591 97.0101C215.744 97.0101 218.161 97.772 219.842 99.2959C221.576 100.82 222.443 103.079 222.443 106.074C222.443 106.862 222.364 107.44 222.207 107.808C222.102 108.176 221.891 108.36 221.576 108.36H215.113C215.376 101.844 213.589 98.5865 209.753 98.5865C207.389 98.5865 205.523 99.6637 204.157 101.818C202.844 103.972 202.187 106.889 202.187 110.567C202.187 115.191 203.264 118.869 205.418 121.602C207.573 124.281 210.62 125.621 214.561 125.621C216.033 125.621 217.267 125.437 218.266 125.07C219.264 124.702 220.578 124.097 222.207 123.257L222.364 123.178C222.469 123.178 222.575 123.283 222.68 123.493C222.837 123.703 222.864 123.861 222.758 123.966C220.867 125.753 218.949 127.066 217.005 127.907C215.061 128.695 212.959 129.089 210.699 129.089ZM199.822 107.099L217.32 106.784V108.36L199.901 108.439L199.822 107.099Z" fill="#1F2B1F"/>
<path d="M245.069 128.143C244.911 128.143 244.833 127.986 244.833 127.671C244.833 127.355 244.911 127.198 245.069 127.198C246.435 127.198 247.118 126.856 247.118 126.173C247.118 125.7 246.829 125.017 246.251 124.124L233.01 104.261C231.854 102.475 230.698 101.109 229.542 100.163C228.386 99.1645 227.335 98.6653 226.389 98.6653C226.284 98.6653 226.231 98.5077 226.231 98.1924C226.231 97.8771 226.284 97.7195 226.389 97.7195C227.492 97.7195 228.307 97.7458 228.832 97.7983L231.276 97.8771L236.557 97.7983C237.397 97.7458 238.553 97.7195 240.025 97.7195C240.13 97.7195 240.182 97.8771 240.182 98.1924C240.182 98.5077 240.13 98.6653 240.025 98.6653C238.658 98.6653 237.975 99.0331 237.975 99.7688C237.975 100.294 238.264 100.951 238.842 101.739L252.005 121.602C253.319 123.546 254.606 124.964 255.867 125.858C257.128 126.751 258.284 127.198 259.335 127.198C259.493 127.198 259.572 127.355 259.572 127.671C259.572 127.986 259.493 128.143 259.335 128.143L256.577 128.065C255.946 128.012 255.026 127.986 253.818 127.986L248.379 128.065C247.591 128.117 246.488 128.143 245.069 128.143ZM225.758 128.143C225.601 128.143 225.522 127.986 225.522 127.671C225.522 127.355 225.601 127.198 225.758 127.198C227.282 127.198 228.911 126.593 230.645 125.385C232.432 124.176 234.087 122.521 235.611 120.419L241.207 112.695L242.31 113.72L237.424 120.892C236.215 122.574 235.611 123.94 235.611 124.991C235.611 126.462 236.898 127.198 239.473 127.198C239.631 127.198 239.709 127.355 239.709 127.671C239.709 127.986 239.631 128.143 239.473 128.143C238.054 128.143 237.003 128.117 236.32 128.065L231.591 127.986L228.438 128.065C227.913 128.117 227.02 128.143 225.758 128.143ZM241.759 112.064L246.567 104.971C247.775 103.184 248.379 101.818 248.379 100.872C248.379 99.401 247.066 98.6653 244.438 98.6653C244.333 98.6653 244.281 98.5077 244.281 98.1924C244.281 97.8771 244.333 97.7195 244.438 97.7195C245.857 97.7195 246.934 97.7458 247.67 97.7983L252.399 97.8771L255.552 97.7983C256.077 97.7458 256.971 97.7195 258.232 97.7195C258.389 97.7195 258.468 97.8771 258.468 98.1924C258.468 98.5077 258.389 98.6653 258.232 98.6653C256.708 98.6653 255.053 99.2696 253.266 100.478C251.532 101.687 249.903 103.342 248.379 105.444L242.704 113.01L241.759 112.064Z" fill="#1F2B1F"/>
<path d="M292.975 129.089C290.716 129.089 288.798 128.564 287.222 127.513C285.698 126.409 284.936 124.597 284.936 122.074V104.261C284.936 102.527 284.647 101.371 284.069 100.793C283.543 100.215 282.492 99.9264 280.916 99.9264C280.864 99.9264 280.785 99.8739 280.68 99.7688C280.627 99.6111 280.601 99.4535 280.601 99.2959C280.601 99.1382 280.627 99.0069 280.68 98.9018C280.785 98.7441 280.864 98.6653 280.916 98.6653C285.855 98.4551 288.956 96.327 290.217 92.281C290.269 92.0708 290.479 91.9657 290.847 91.9657C291.215 91.9657 291.399 92.0708 291.399 92.281V119.473C291.399 121.523 291.898 123.047 292.897 124.045C293.947 124.991 295.392 125.464 297.232 125.464C299.438 125.464 301.514 124.702 303.458 123.178L303.616 123.099C303.773 123.099 303.905 123.23 304.01 123.493C304.168 123.703 304.168 123.861 304.01 123.966C302.066 125.753 300.227 127.066 298.493 127.907C296.759 128.695 294.92 129.089 292.975 129.089ZM301.567 101.66C297.783 100.82 293.632 100.399 289.113 100.399V98.5077C292.476 98.5077 296.732 98.2449 301.882 97.7195C301.987 97.7195 302.092 97.9297 302.197 98.35C302.355 98.7179 302.434 99.1382 302.434 99.6111C302.434 100.084 302.328 100.557 302.118 101.03C301.961 101.503 301.777 101.713 301.567 101.66Z" fill="#1F2B1F"/>
<path d="M306.762 128.143C306.604 128.143 306.525 127.986 306.525 127.671C306.525 127.355 306.604 127.198 306.762 127.198C308.548 127.198 309.731 126.83 310.309 126.094C310.939 125.359 311.254 123.914 311.254 121.759V81.4829C311.254 79.6438 311.071 78.3301 310.703 77.5419C310.335 76.7012 309.731 76.2808 308.89 76.2808C308.102 76.2808 307.025 76.5961 305.658 77.2267H305.579C305.422 77.2267 305.264 77.0953 305.107 76.8326C305.002 76.5173 305.028 76.3334 305.185 76.2808L316.141 71.0788L316.535 71C316.745 71 316.956 71.1051 317.166 71.3153C317.429 71.5255 317.56 71.7094 317.56 71.867V121.759C317.56 123.914 317.849 125.359 318.427 126.094C319.057 126.83 320.266 127.198 322.053 127.198C322.263 127.198 322.368 127.355 322.368 127.671C322.368 127.986 322.263 128.143 322.053 128.143C320.739 128.143 319.688 128.117 318.9 128.065L314.407 127.986L309.915 128.065C309.126 128.117 308.075 128.143 306.762 128.143ZM327.964 128.143C327.806 128.143 327.728 127.986 327.728 127.671C327.728 127.355 327.806 127.198 327.964 127.198C329.751 127.198 330.933 126.83 331.511 126.094C332.141 125.359 332.457 123.914 332.457 121.759V110.015C332.457 107.073 331.905 104.892 330.801 103.473C329.698 102.055 327.99 101.345 325.678 101.345C323.944 101.345 322.21 101.844 320.476 102.843C318.742 103.789 317.297 105.05 316.141 106.626L315.747 105.68C319.951 99.795 324.575 96.8525 329.619 96.8525C332.457 96.8525 334.69 97.7195 336.319 99.4535C337.948 101.188 338.762 103.552 338.762 106.547V121.759C338.762 123.914 339.051 125.359 339.629 126.094C340.26 126.83 341.468 127.198 343.255 127.198C343.465 127.198 343.57 127.355 343.57 127.671C343.57 127.986 343.465 128.143 343.255 128.143C341.941 128.143 340.89 128.117 340.102 128.065L335.609 127.986L331.117 128.065C330.329 128.117 329.278 128.143 327.964 128.143Z" fill="#1F2B1F"/>
<path d="M348.211 128.143C348.053 128.143 347.975 127.986 347.975 127.671C347.975 127.355 348.053 127.198 348.211 127.198C349.998 127.198 351.18 126.83 351.758 126.094C352.388 125.359 352.704 123.914 352.704 121.759V107.414C352.704 105.628 352.52 104.34 352.152 103.552C351.784 102.711 351.154 102.291 350.26 102.291C349.42 102.291 348.369 102.606 347.108 103.237H347.029C346.819 103.237 346.661 103.105 346.556 102.843C346.451 102.58 346.477 102.396 346.635 102.291L357.985 97.0101L358.221 96.9313C358.431 96.9313 358.641 97.0627 358.852 97.3254C359.114 97.5356 359.246 97.7195 359.246 97.8771V99.5323C359.141 101.739 359.088 104.34 359.088 107.335V121.759C359.088 123.914 359.377 125.359 359.955 126.094C360.586 126.83 361.794 127.198 363.581 127.198C363.738 127.198 363.817 127.355 363.817 127.671C363.817 127.986 363.738 128.143 363.581 128.143C362.267 128.143 361.216 128.117 360.428 128.065L355.857 127.986L351.285 128.065C350.549 128.117 349.525 128.143 348.211 128.143ZM355.462 88.6553C354.096 88.6553 353.019 88.2875 352.231 87.5519C351.495 86.8163 351.127 85.7653 351.127 84.3992C351.127 83.1381 351.495 82.1397 352.231 81.404C353.019 80.6684 354.096 80.3006 355.462 80.3006C356.776 80.3006 357.774 80.6684 358.458 81.404C359.193 82.1397 359.561 83.1381 359.561 84.3992C359.561 85.7653 359.193 86.8163 358.458 87.5519C357.774 88.2875 356.776 88.6553 355.462 88.6553Z" fill="#1F2B1F"/>
<path d="M390.113 128.143C389.955 128.143 389.877 127.986 389.877 127.671C389.877 127.355 389.955 127.198 390.113 127.198C391.9 127.198 393.082 126.83 393.66 126.094C394.238 125.359 394.527 123.914 394.527 121.759V109.936C394.527 106.994 393.975 104.839 392.872 103.473C391.821 102.055 390.139 101.345 387.827 101.345C386.093 101.345 384.333 101.818 382.546 102.764C380.812 103.71 379.394 104.971 378.29 106.547L377.896 105.601C382.1 99.7162 386.724 96.7737 391.768 96.7737C394.658 96.7737 396.891 97.6407 398.468 99.3747C400.097 101.109 400.911 103.5 400.911 106.547V121.759C400.911 123.914 401.2 125.359 401.778 126.094C402.409 126.83 403.617 127.198 405.404 127.198C405.561 127.198 405.64 127.355 405.64 127.671C405.64 127.986 405.561 128.143 405.404 128.143C404.09 128.143 403.039 128.117 402.251 128.065L397.758 127.986L393.266 128.065C392.478 128.117 391.427 128.143 390.113 128.143ZM368.911 128.143C368.753 128.143 368.674 127.986 368.674 127.671C368.674 127.355 368.753 127.198 368.911 127.198C370.697 127.198 371.88 126.83 372.458 126.094C373.036 125.359 373.325 123.914 373.325 121.759V106.705C373.325 105.023 373.114 103.789 372.694 103C372.326 102.212 371.696 101.818 370.802 101.818C370.014 101.818 368.701 102.212 366.862 103H366.783C366.573 103 366.415 102.869 366.31 102.606C366.205 102.344 366.231 102.186 366.389 102.133L376.714 97.0889C377.029 96.9839 377.213 96.9313 377.266 96.9313C377.844 96.9313 378.395 97.5881 378.921 98.9018C379.446 100.215 379.709 101.923 379.709 104.025V121.759C379.709 123.914 379.998 125.359 380.576 126.094C381.207 126.83 382.415 127.198 384.202 127.198C384.359 127.198 384.438 127.355 384.438 127.671C384.438 127.986 384.359 128.143 384.202 128.143C382.888 128.143 381.837 128.117 381.049 128.065L376.556 127.986L371.985 128.065C371.249 128.117 370.224 128.143 368.911 128.143Z" fill="#1F2B1F"/>
<path d="M421.202 150.291C417.576 150.291 414.634 149.477 412.374 147.848C410.167 146.219 409.064 144.091 409.064 141.464C409.064 139.415 409.878 137.365 411.507 135.316C413.136 133.267 415.764 131.165 419.389 129.01L420.177 129.956C418.601 130.85 417.392 131.9 416.552 133.109C415.711 134.37 415.291 135.946 415.291 137.838C415.291 140.991 416.236 143.434 418.128 145.168C420.072 146.955 422.516 147.848 425.458 147.848C428.453 147.848 430.87 146.955 432.71 145.168C434.549 143.434 435.468 141.07 435.468 138.075C435.468 135.868 434.969 134.239 433.971 133.188C433.025 132.189 431.737 131.559 430.109 131.296C428.532 131.086 426.246 130.955 423.251 130.902C419.468 130.85 416.525 130.429 414.424 129.641C412.322 128.905 411.271 127.329 411.271 124.912C411.271 123.073 411.875 121.365 413.084 119.789C414.345 118.212 416.263 116.688 418.837 115.217L419.626 115.769C418.47 116.505 417.629 117.293 417.103 118.133C416.578 118.922 416.315 119.841 416.315 120.892C416.315 122.784 417.077 123.992 418.601 124.518C420.177 125.043 422.883 125.332 426.719 125.385C429.714 125.437 432.158 125.595 434.049 125.858C435.941 126.12 437.57 126.856 438.936 128.065C440.355 129.273 441.064 131.165 441.064 133.74C441.064 136.63 440.145 139.336 438.306 141.858C436.467 144.433 434.023 146.482 430.976 148.006C427.928 149.53 424.67 150.291 421.202 150.291ZM422.857 117.661C420.44 117.661 418.312 117.161 416.473 116.163C414.634 115.165 413.215 113.877 412.217 112.301C411.218 110.672 410.719 108.964 410.719 107.178C410.719 105.128 411.35 103.342 412.611 101.818C413.872 100.294 415.501 99.1382 417.498 98.35C419.547 97.5619 421.727 97.1678 424.039 97.1678C426.509 97.1678 428.664 97.6144 430.503 98.5077C432.342 99.401 433.76 100.61 434.759 102.133C435.757 103.657 436.256 105.312 436.256 107.099C436.256 109.096 435.626 110.908 434.365 112.537C433.104 114.166 431.448 115.427 429.399 116.321C427.35 117.214 425.169 117.661 422.857 117.661ZM424.749 116.321C426.115 116.321 427.245 115.743 428.138 114.587C429.031 113.431 429.478 111.618 429.478 109.148C429.478 106.941 429.084 105.05 428.296 103.473C427.56 101.844 426.588 100.636 425.379 99.8476C424.223 99.0069 422.989 98.5865 421.675 98.5865C418.837 98.5865 417.419 100.715 417.419 104.971C417.419 107.23 417.76 109.227 418.443 110.961C419.179 112.642 420.099 113.956 421.202 114.902C422.358 115.848 423.54 116.321 424.749 116.321ZM430.818 100.793C432.552 99.5323 434.207 98.5865 435.783 97.9559C437.412 97.3254 439.146 97.0101 440.985 97.0101C441.353 97.0101 441.537 97.6932 441.537 99.0594C441.537 99.7425 441.432 100.478 441.222 101.266C441.064 102.055 440.88 102.396 440.67 102.291C438.726 101.45 436.834 101.03 434.995 101.03C433.682 101.03 432.447 101.214 431.291 101.582L430.739 103.316L430.818 100.793Z" fill="#1F2B1F"/>
<path d="M451.17 101.818C451.17 103.5 451.722 104.892 452.826 105.995C453.982 107.099 455.637 108.229 457.791 109.385C459.683 110.436 461.128 111.303 462.126 111.986C463.177 112.669 464.07 113.588 464.806 114.744C465.594 115.9 465.988 117.293 465.988 118.922C465.988 120.708 465.542 122.363 464.648 123.887C463.755 125.411 462.415 126.646 460.629 127.592C458.895 128.538 456.819 129.01 454.402 129.01C451.512 129.01 448.858 128.275 446.441 126.804C446.126 126.488 445.968 126.173 445.968 125.858L445.811 118.606C445.811 118.449 445.942 118.37 446.205 118.37C446.52 118.317 446.704 118.37 446.756 118.528C447.65 121.102 448.99 123.23 450.776 124.912C452.615 126.593 454.56 127.434 456.609 127.434C457.922 127.434 458.947 127.093 459.683 126.409C460.418 125.726 460.786 124.702 460.786 123.336C460.786 121.339 460.208 119.762 459.052 118.606C457.896 117.398 456.215 116.216 454.008 115.06C452.221 114.114 450.829 113.326 449.83 112.695C448.832 112.012 447.965 111.119 447.229 110.015C446.546 108.859 446.205 107.44 446.205 105.759C446.205 102.764 447.282 100.531 449.436 99.0594C451.643 97.5881 454.297 96.8525 457.397 96.8525C459.446 96.8525 461.548 97.2466 463.702 98.0348C464.175 98.2449 464.412 98.5339 464.412 98.9018C464.412 100.11 464.386 101.056 464.333 101.739L464.254 105.523C464.254 105.628 464.097 105.68 463.781 105.68C463.466 105.68 463.308 105.628 463.308 105.523C463.308 104.472 462.888 103.394 462.047 102.291C461.207 101.135 460.129 100.189 458.816 99.4535C457.502 98.7179 456.162 98.35 454.796 98.35C452.379 98.35 451.17 99.506 451.17 101.818Z" fill="#1F2B1F"/>
<path d="M7.88186 200.01C5.72748 200.01 3.86211 199.538 2.28574 198.592C0.761913 197.646 0 196.49 0 195.124C0 194.02 0.315274 193.18 0.945823 192.602C1.57637 192.024 2.33828 191.735 3.23156 191.735C3.9672 191.735 4.5452 191.945 4.96557 192.365C5.43848 192.785 5.96394 193.442 6.54194 194.336C7.17249 195.386 7.80304 196.201 8.43359 196.779C9.11668 197.357 10.01 197.646 11.1134 197.646C12.2169 197.646 13.0576 197.357 13.6356 196.779C14.2136 196.148 14.6077 195.203 14.8179 193.941C14.8704 193.731 14.8967 193.416 14.8967 192.996C14.8967 191.419 14.4238 190.079 13.478 188.976C12.5847 187.82 11.2448 186.559 9.45823 185.193C7.61913 183.669 6.25294 182.355 5.35966 181.252C4.46638 180.148 4.01975 178.808 4.01975 177.232C4.01975 175.656 4.51893 174.158 5.5173 172.739C6.56821 171.321 7.96067 170.165 9.69468 169.271C11.4812 168.378 13.3992 167.931 15.4484 167.931C17.6028 167.931 19.3368 168.299 20.6505 169.035C22.0166 169.77 22.6997 170.742 22.6997 171.951C22.6997 173.002 22.3582 173.816 21.6751 174.394C21.0446 174.972 20.3352 175.261 19.547 175.261C18.6012 175.261 17.8918 175.051 17.4189 174.631C16.946 174.211 16.4731 173.554 16.0002 172.66C15.5273 171.767 15.0281 171.11 14.5026 170.69C14.0297 170.217 13.2941 169.981 12.2957 169.981C11.1922 169.981 10.3515 170.322 9.7735 171.005C9.1955 171.688 8.9065 172.555 8.9065 173.606C8.9065 174.972 9.35314 176.207 10.2464 177.311C11.1397 178.414 12.4533 179.675 14.1873 181.094C16.079 182.723 17.4977 184.142 18.4435 185.35C19.3894 186.506 19.8623 187.899 19.8623 189.528C19.8623 190.999 19.3368 192.575 18.2859 194.257C17.235 195.886 15.79 197.252 13.9509 198.355C12.1643 199.459 10.1413 200.01 7.88186 200.01Z" fill="#1F2B1F"/>
<path d="M33.7774 200.089C29.784 200.089 27.7872 198.276 27.7872 194.651C27.7872 193.915 27.8661 193.127 28.0237 192.286L31.1764 175.025C31.3341 174.079 31.4129 173.317 31.4129 172.739C31.4129 171.951 31.2027 171.426 30.7823 171.163C30.4145 170.9 29.6526 170.769 28.4966 170.769C28.339 170.769 28.2601 170.611 28.2601 170.296C28.2601 169.875 28.339 169.665 28.4966 169.665C30.651 169.665 32.4901 169.061 34.0139 167.852C35.5377 166.591 36.7463 164.962 37.6396 162.966C37.6396 162.861 37.7972 162.808 38.1125 162.808C38.3752 162.808 38.6116 162.861 38.8218 162.966C39.032 163.018 39.1108 163.097 39.0583 163.202L34.1715 190.552C34.0139 191.235 33.9351 191.892 33.9351 192.523C33.9351 194.992 35.275 196.227 37.9548 196.227C40.0567 196.227 42.3687 195.176 44.8909 193.074H44.9697C45.1799 193.074 45.3638 193.153 45.5214 193.311C45.679 193.469 45.679 193.626 45.5214 193.784C43.1569 195.991 41.0287 197.593 39.1371 198.592C37.298 199.59 35.5115 200.089 33.7774 200.089ZM45.6002 172.424C45.4426 172.424 44.3654 172.293 42.3687 172.03C40.4245 171.715 38.3489 171.557 36.142 171.557L36.2996 169.429C38.9269 169.429 41.7644 169.271 44.812 168.956L47.5707 168.798C47.9385 168.798 48.1224 169.035 48.1224 169.508C48.1224 169.928 47.8334 170.532 47.2554 171.32C46.6774 172.056 46.1257 172.424 45.6002 172.424Z" fill="#1F2B1F"/>
<path d="M57.7247 200.168C54.1516 200.168 52.3651 198.119 52.3651 194.02C52.3651 192.759 52.5227 191.34 52.838 189.764L55.5966 175.734C55.7543 174.946 55.8331 174.289 55.8331 173.764C55.8331 172.398 55.3865 171.715 54.4932 171.715C53.9677 171.715 53.3372 171.977 52.6015 172.503C51.8659 173.028 50.9989 173.79 50.0005 174.789C49.8954 174.894 49.7903 174.946 49.6852 174.946C49.5276 174.946 49.3962 174.867 49.2911 174.71C49.1861 174.5 49.2123 174.316 49.37 174.158C51.2091 172.004 52.7854 170.453 54.0991 169.508C55.4653 168.509 56.8577 168.01 58.2765 168.01C60.5885 168.01 61.7445 169.403 61.7445 172.188C61.7445 173.133 61.5868 174.316 61.2716 175.734L58.8282 188.266C58.5129 189.738 58.3553 190.999 58.3553 192.05C58.3553 194.782 59.3011 196.148 61.1927 196.148C62.8217 196.148 64.4769 195.097 66.1583 192.996C67.8923 190.894 69.495 187.846 70.9663 183.853C72.4901 179.807 73.7249 175.025 74.6707 169.508L75.9318 169.586C74.8809 175.734 73.4359 181.12 71.5968 185.744C69.7577 190.368 67.6296 193.941 65.2125 196.464C62.8479 198.933 60.352 200.168 57.7247 200.168ZM73.5673 199.853C72.4113 199.853 71.5705 199.538 71.0451 198.907C70.5196 198.276 70.2569 197.278 70.2569 195.912C70.2569 194.914 70.362 193.889 70.5722 192.838L74.6707 169.508C74.8284 168.562 76.0632 168.089 78.3752 168.089C79.9516 168.089 80.7398 168.273 80.7398 168.641L80.4245 170.375C79.899 172.844 79.61 174.237 79.5575 174.552L76.3259 192.129C76.2208 192.602 76.1683 193.206 76.1683 193.941C76.1683 195.465 76.6412 196.227 77.587 196.227C78.743 196.227 80.3457 195.124 82.3949 192.917C82.4475 192.864 82.5263 192.838 82.6314 192.838C82.789 192.838 82.9204 192.943 83.0255 193.153C83.1831 193.311 83.1831 193.469 83.0255 193.626C81.1864 195.781 79.5049 197.357 77.9811 198.355C76.5098 199.354 75.0385 199.853 73.5673 199.853Z" fill="#1F2B1F"/>
<path d="M79.6899 220.819C79.5322 220.871 79.4271 220.74 79.3746 220.424C79.2695 220.109 79.322 219.925 79.5322 219.873C80.6357 219.663 81.4501 219.374 81.9756 219.006C82.5011 218.69 82.8951 218.165 83.1579 217.429C83.4206 216.694 83.7096 215.459 84.0249 213.725L92.0644 168.719C92.0644 168.614 92.5898 168.22 93.6407 167.537C94.6917 166.802 95.6375 166.066 96.4782 165.33C97.3189 164.542 97.8444 163.675 98.0546 162.729C98.1071 162.519 98.2648 162.44 98.5275 162.493C98.8428 162.545 98.9741 162.677 98.9216 162.887L90.0151 213.173C89.8575 214.119 89.7786 214.881 89.7786 215.459C89.7786 216.3 89.9625 216.904 90.3304 217.272C90.7507 217.64 91.4076 217.823 92.3008 217.823C92.511 217.823 93.089 217.771 94.0348 217.666C94.245 217.613 94.3764 217.718 94.4289 217.981C94.4815 218.296 94.4027 218.48 94.1925 218.533L79.6899 220.819ZM96.1629 199.222C93.7984 199.222 91.4864 198.986 89.2269 198.513L90.0151 193.863C91.3287 194.808 92.6686 195.57 94.0348 196.148C95.401 196.674 97.0037 196.937 98.8428 196.937C101.628 196.937 103.861 195.57 105.542 192.838C107.224 190.053 108.327 186.375 108.853 181.803C108.958 180.647 109.01 179.833 109.01 179.36C109.01 174.263 106.83 171.715 102.468 171.715C100.209 171.715 97.8707 172.293 95.4536 173.449C93.0365 174.552 90.199 176.312 86.9412 178.729C86.8886 178.782 86.8098 178.808 86.7047 178.808C86.4945 178.808 86.3369 178.703 86.2318 178.493C86.1267 178.283 86.153 178.125 86.3106 178.02C94.0874 171.452 101.05 168.168 107.198 168.168C109.825 168.168 111.822 168.877 113.188 170.296C114.606 171.715 115.316 173.764 115.316 176.444C115.316 177.337 115.237 178.257 115.079 179.202C114.554 182.723 113.319 186.033 111.375 189.133C109.483 192.181 107.171 194.625 104.439 196.464C101.759 198.303 99.0004 199.222 96.1629 199.222Z" fill="#1F2B1F"/>
<path d="M125.188 199.853C122.876 199.853 121.72 198.487 121.72 195.754C121.72 194.756 121.877 193.547 122.193 192.129L125.424 175.734C125.582 174.999 125.661 174.368 125.661 173.843C125.661 172.371 125.162 171.636 124.163 171.636C122.955 171.636 121.352 172.739 119.355 174.946C119.303 174.999 119.224 175.025 119.119 175.025C118.909 175.025 118.751 174.946 118.646 174.789C118.541 174.578 118.541 174.394 118.646 174.237C120.538 172.082 122.219 170.506 123.69 169.508C125.214 168.509 126.685 168.01 128.104 168.01C130.416 168.01 131.572 169.297 131.572 171.872C131.572 172.66 131.441 173.711 131.178 175.025L127.947 192.129C127.789 192.917 127.71 193.574 127.71 194.099C127.71 195.465 128.157 196.148 129.05 196.148C129.996 196.148 131.52 195.15 133.621 193.153C133.727 193.048 133.832 192.996 133.937 192.996C134.094 192.996 134.226 193.101 134.331 193.311C134.436 193.469 134.41 193.626 134.252 193.784C132.465 195.886 130.863 197.436 129.444 198.434C128.025 199.38 126.607 199.853 125.188 199.853ZM130.39 159.419C129.076 159.419 128.052 159.051 127.316 158.315C126.58 157.58 126.213 156.555 126.213 155.242C126.213 154.086 126.58 153.166 127.316 152.483C128.104 151.747 129.129 151.379 130.39 151.379C131.651 151.379 132.623 151.747 133.306 152.483C133.989 153.166 134.331 154.086 134.331 155.242C134.331 156.555 133.989 157.58 133.306 158.315C132.623 159.051 131.651 159.419 130.39 159.419Z" fill="#1F2B1F"/>
<path d="M144.662 200.168C142.717 200.168 141.088 199.538 139.775 198.276C138.514 196.963 137.883 194.966 137.883 192.286C137.883 191.34 137.962 190.316 138.12 189.212C138.803 185.482 140.274 181.961 142.534 178.651C144.793 175.34 147.447 172.687 150.494 170.69C153.542 168.693 156.511 167.695 159.401 167.695C161.187 167.695 162.711 168.141 163.972 169.035C165.233 169.928 165.916 171.242 166.021 172.976L162.317 179.754C159.795 186.007 157.01 190.973 153.962 194.651C150.967 198.329 147.867 200.168 144.662 200.168ZM148.13 195.203C150.231 195.203 152.281 194.073 154.277 191.813C156.274 189.501 157.903 186.821 159.164 183.774C160.478 180.726 161.135 178.335 161.135 176.601C161.135 174.867 160.609 173.527 159.558 172.582C158.56 171.636 157.246 171.163 155.617 171.163C152.832 171.215 150.415 172.477 148.366 174.946C146.317 177.416 144.924 180.884 144.189 185.35C143.979 186.611 143.873 187.846 143.873 189.055C143.873 191.104 144.241 192.654 144.977 193.705C145.713 194.703 146.763 195.203 148.13 195.203ZM161.45 199.853C159.138 199.853 157.982 198.434 157.982 195.597C157.982 194.756 158.113 193.6 158.376 192.129L165.864 151.931C166.021 151.038 166.1 150.302 166.1 149.724C166.1 148.936 165.969 148.358 165.706 147.99C165.443 147.622 165.023 147.438 164.445 147.438C163.709 147.438 162.553 147.806 160.977 148.542H160.819C160.609 148.542 160.478 148.411 160.425 148.148C160.373 147.885 160.452 147.727 160.662 147.675L172.169 142H172.327C172.537 142 172.721 142.079 172.879 142.236C173.089 142.394 173.168 142.525 173.115 142.631L164.13 192.129C163.972 192.917 163.893 193.574 163.893 194.099C163.893 195.465 164.34 196.148 165.233 196.148C166.127 196.148 167.65 195.124 169.805 193.074C169.91 192.969 169.989 192.917 170.041 192.917C170.199 192.917 170.33 193.022 170.435 193.232C170.593 193.39 170.593 193.547 170.435 193.705C168.596 195.807 166.994 197.357 165.627 198.355C164.261 199.354 162.869 199.853 161.45 199.853Z" fill="#1F2B1F"/>
<path d="M178.888 199.853C177.679 199.853 176.786 199.511 176.208 198.828C175.683 198.145 175.42 197.094 175.42 195.675C175.42 194.887 175.551 193.705 175.814 192.129L183.223 151.931C183.381 150.985 183.459 150.197 183.459 149.567C183.459 148.148 182.934 147.438 181.883 147.438C181.2 147.438 180.044 147.806 178.415 148.542H178.257C178.047 148.542 177.916 148.411 177.863 148.148C177.811 147.885 177.89 147.727 178.1 147.675L189.607 142H189.765C189.975 142 190.159 142.079 190.317 142.236C190.527 142.394 190.606 142.525 190.553 142.631L181.647 192.129C181.436 192.917 181.331 193.626 181.331 194.257C181.331 195.518 181.778 196.148 182.671 196.148C183.617 196.148 185.115 195.124 187.164 193.074C187.269 192.969 187.374 192.917 187.479 192.917C187.637 192.917 187.768 193.022 187.873 193.232C187.978 193.39 187.952 193.547 187.794 193.705C186.008 195.807 184.431 197.357 183.065 198.355C181.699 199.354 180.307 199.853 178.888 199.853Z" fill="#1F2B1F"/>
<path d="M189.54 221.291C186.755 221.291 185.362 220.162 185.362 217.902C185.362 216.641 185.756 215.669 186.544 214.986C187.28 214.303 188.278 213.961 189.54 213.961C190.38 213.961 191.405 214.145 192.613 214.513C193.875 214.828 194.82 214.986 195.451 214.986C196.502 214.986 197.579 214.618 198.682 213.883C200.469 212.621 202.807 209.942 205.697 205.843C208.64 201.797 211.346 197.567 213.816 193.153C216.285 188.739 217.757 185.534 218.229 183.537C218.492 182.486 218.624 181.409 218.624 180.306C218.624 179.255 218.492 178.362 218.229 177.626C217.967 176.838 217.573 175.918 217.047 174.867C216.627 174.184 216.312 173.606 216.101 173.133C215.944 172.608 215.865 172.056 215.865 171.478C215.865 170.427 216.206 169.586 216.89 168.956C217.625 168.273 218.597 167.931 219.806 167.931C221.014 167.931 221.934 168.378 222.564 169.271C223.248 170.165 223.589 171.426 223.589 173.055C223.589 177.101 221.487 183.064 217.284 190.946C213.08 198.776 208.272 205.79 202.86 211.991C197.448 218.191 193.008 221.291 189.54 221.291ZM204.2 209.232C204.252 207.971 204.279 206.132 204.279 203.715C204.279 193.679 203.517 185.902 201.993 180.385C200.522 174.867 198.499 172.109 195.924 172.109C195.241 172.109 194.558 172.345 193.875 172.818C193.244 173.238 192.692 173.869 192.219 174.71C192.167 174.867 192.009 174.946 191.746 174.946C191.379 174.946 191.221 174.789 191.274 174.473C192.219 172.582 193.507 171.032 195.136 169.823C196.765 168.614 198.315 168.01 199.786 168.01C201.888 168.01 203.701 169.192 205.224 171.557C206.748 173.922 207.904 177.179 208.692 181.33C209.481 185.429 209.875 190.053 209.875 195.203C209.875 196.411 209.822 198.329 209.717 200.956L204.2 209.232Z" fill="#1F2B1F"/>
<path d="M253.508 172.818C253.508 174.5 254.06 175.892 255.163 176.995C256.319 178.099 257.975 179.229 260.129 180.385C262.021 181.436 263.466 182.303 264.464 182.986C265.515 183.669 266.408 184.588 267.144 185.744C267.932 186.9 268.326 188.293 268.326 189.922C268.326 191.708 267.879 193.363 266.986 194.887C266.093 196.411 264.753 197.646 262.966 198.592C261.232 199.538 259.157 200.01 256.74 200.01C253.85 200.01 251.196 199.275 248.779 197.804C248.464 197.488 248.306 197.173 248.306 196.858L248.148 189.606C248.148 189.449 248.28 189.37 248.543 189.37C248.858 189.317 249.042 189.37 249.094 189.528C249.988 192.102 251.328 194.23 253.114 195.912C254.953 197.593 256.897 198.434 258.947 198.434C260.26 198.434 261.285 198.093 262.021 197.409C262.756 196.726 263.124 195.702 263.124 194.336C263.124 192.339 262.546 190.762 261.39 189.606C260.234 188.398 258.553 187.216 256.346 186.06C254.559 185.114 253.167 184.326 252.168 183.695C251.17 183.012 250.303 182.119 249.567 181.015C248.884 179.859 248.543 178.44 248.543 176.759C248.543 173.764 249.62 171.531 251.774 170.059C253.981 168.588 256.635 167.852 259.735 167.852C261.784 167.852 263.886 168.247 266.04 169.035C266.513 169.245 266.75 169.534 266.75 169.902C266.75 171.11 266.723 172.056 266.671 172.739L266.592 176.523C266.592 176.628 266.434 176.68 266.119 176.68C265.804 176.68 265.646 176.628 265.646 176.523C265.646 175.472 265.226 174.394 264.385 173.291C263.544 172.135 262.467 171.189 261.154 170.453C259.84 169.718 258.5 169.35 257.134 169.35C254.717 169.35 253.508 170.506 253.508 172.818Z" fill="#1F2B1F"/>
<path d="M274.704 199.143C274.546 199.143 274.467 198.986 274.467 198.671C274.467 198.355 274.546 198.198 274.704 198.198C276.49 198.198 277.672 197.83 278.25 197.094C278.881 196.359 279.196 194.914 279.196 192.759V178.414C279.196 176.628 279.012 175.34 278.645 174.552C278.277 173.711 277.646 173.291 276.753 173.291C275.912 173.291 274.861 173.606 273.6 174.237H273.521C273.311 174.237 273.153 174.105 273.048 173.843C272.943 173.58 272.97 173.396 273.127 173.291L284.477 168.01L284.714 167.931C284.924 167.931 285.134 168.063 285.344 168.325C285.607 168.536 285.738 168.719 285.738 168.877V170.532C285.633 172.739 285.581 175.34 285.581 178.335V192.759C285.581 194.914 285.87 196.359 286.448 197.094C287.078 197.83 288.287 198.198 290.073 198.198C290.231 198.198 290.31 198.355 290.31 198.671C290.31 198.986 290.231 199.143 290.073 199.143C288.76 199.143 287.709 199.117 286.92 199.065L282.349 198.986L277.777 199.065C277.042 199.117 276.017 199.143 274.704 199.143ZM281.955 159.655C280.589 159.655 279.512 159.288 278.723 158.552C277.988 157.816 277.62 156.765 277.62 155.399C277.62 154.138 277.988 153.14 278.723 152.404C279.512 151.668 280.589 151.301 281.955 151.301C283.269 151.301 284.267 151.668 284.95 152.404C285.686 153.14 286.053 154.138 286.053 155.399C286.053 156.765 285.686 157.816 284.95 158.552C284.267 159.288 283.269 159.655 281.955 159.655Z" fill="#1F2B1F"/>
<path d="M336.231 199.143C336.074 199.143 335.995 198.986 335.995 198.671C335.995 198.355 336.074 198.198 336.231 198.198C337.965 198.198 339.148 197.83 339.778 197.094C340.409 196.306 340.724 194.861 340.724 192.759V181.015C340.724 178.073 340.199 175.892 339.148 174.473C338.149 173.055 336.599 172.345 334.497 172.345C332.816 172.345 331.134 172.818 329.453 173.764C327.824 174.71 326.458 175.997 325.354 177.626L324.96 176.68C329.006 170.795 333.473 167.852 338.359 167.852C341.144 167.852 343.272 168.667 344.744 170.296C346.268 171.872 347.029 174.289 347.029 177.547V192.759C347.029 194.914 347.318 196.359 347.896 197.094C348.527 197.83 349.736 198.198 351.522 198.198C351.732 198.198 351.837 198.355 351.837 198.671C351.837 198.986 351.732 199.143 351.522 199.143C350.208 199.143 349.158 199.117 348.369 199.065L343.877 198.986L339.384 199.065C338.596 199.117 337.545 199.143 336.231 199.143ZM315.66 199.143C315.502 199.143 315.423 198.986 315.423 198.671C315.423 198.355 315.502 198.198 315.66 198.198C317.446 198.198 318.629 197.83 319.207 197.094C319.837 196.359 320.152 194.914 320.152 192.759V181.015C320.152 178.073 319.627 175.892 318.576 174.473C317.578 173.055 316.027 172.345 313.926 172.345C312.244 172.345 310.563 172.818 308.881 173.764C307.252 174.71 305.886 175.997 304.783 177.626L304.389 176.68C308.435 170.795 312.901 167.852 317.788 167.852C320.573 167.852 322.701 168.641 324.172 170.217C325.696 171.741 326.458 173.974 326.458 176.917V192.759C326.458 194.914 326.773 196.359 327.404 197.094C328.034 197.83 329.243 198.198 331.029 198.198C331.187 198.198 331.266 198.355 331.266 198.671C331.266 198.986 331.187 199.143 331.029 199.143C329.663 199.143 328.586 199.117 327.798 199.065L323.305 198.986L318.812 199.065C318.024 199.117 316.973 199.143 315.66 199.143ZM295.403 199.143C295.246 199.143 295.167 198.986 295.167 198.671C295.167 198.355 295.246 198.198 295.403 198.198C297.19 198.198 298.372 197.83 298.95 197.094C299.528 196.359 299.817 194.914 299.817 192.759V177.705C299.817 176.023 299.607 174.789 299.187 174C298.819 173.212 298.188 172.818 297.295 172.818C296.507 172.818 295.193 173.212 293.354 174H293.275C293.065 174 292.907 173.869 292.802 173.606C292.697 173.344 292.723 173.186 292.881 173.133L303.206 168.089C303.522 167.984 303.706 167.931 303.758 167.931C304.336 167.931 304.888 168.588 305.413 169.902C305.939 171.215 306.201 172.923 306.201 175.025V192.759C306.201 194.914 306.49 196.359 307.068 197.094C307.699 197.83 308.908 198.198 310.694 198.198C310.852 198.198 310.931 198.355 310.931 198.671C310.931 198.986 310.852 199.143 310.694 199.143C309.38 199.143 308.33 199.117 307.541 199.065L303.049 198.986L298.477 199.065C297.742 199.117 296.717 199.143 295.403 199.143Z" fill="#1F2B1F"/>
<path d="M355.263 220.819C355.105 220.819 355.026 220.661 355.026 220.346C355.026 220.03 355.105 219.873 355.263 219.873C356.577 219.873 357.549 219.715 358.179 219.4C358.81 219.137 359.23 218.638 359.44 217.902C359.703 217.167 359.834 216.011 359.834 214.434V177.784C359.834 176.05 359.624 174.789 359.204 174C358.836 173.212 358.179 172.818 357.233 172.818C356.34 172.818 355.079 173.186 353.45 173.922H353.292C353.082 173.922 352.925 173.816 352.82 173.606C352.714 173.344 352.714 173.16 352.82 173.055L363.224 168.089C363.329 168.036 363.46 168.01 363.618 168.01C364.353 168.01 364.958 168.667 365.431 169.981C365.956 171.242 366.219 172.976 366.219 175.183V214.434C366.219 216.011 366.403 217.167 366.77 217.902C367.138 218.638 367.821 219.137 368.82 219.4C369.818 219.715 371.394 219.873 373.549 219.873C373.654 219.873 373.706 220.03 373.706 220.346C373.706 220.661 373.654 220.819 373.549 220.819C371.605 220.819 370.107 220.792 369.056 220.74L362.987 220.661L358.494 220.74C357.706 220.792 356.629 220.819 355.263 220.819ZM373.549 200.168C371.552 200.168 369.818 199.984 368.347 199.616C366.876 199.249 365.142 198.618 363.145 197.725L365.273 192.917C366.744 194.703 368.215 196.043 369.687 196.937C371.158 197.83 373.023 198.276 375.283 198.276C377.91 198.276 379.986 197.147 381.509 194.887C383.033 192.575 383.795 189.16 383.795 184.641C383.795 180.49 382.849 177.284 380.958 175.025C379.066 172.766 376.702 171.636 373.864 171.636C371.972 171.636 370.265 172.109 368.741 173.055C367.27 174 365.667 175.419 363.933 177.311L363.224 176.523C365.903 173.475 368.452 171.242 370.869 169.823C373.339 168.404 375.861 167.695 378.436 167.695C380.642 167.695 382.692 168.273 384.583 169.429C386.475 170.585 387.973 172.266 389.076 174.473C390.232 176.68 390.81 179.255 390.81 182.197C390.81 186.349 389.917 189.764 388.13 192.444C386.396 195.124 384.216 197.094 381.588 198.355C378.961 199.564 376.281 200.168 373.549 200.168Z" fill="#1F2B1F"/>
<path d="M396.305 199.143C396.148 199.143 396.069 198.986 396.069 198.671C396.069 198.355 396.148 198.198 396.305 198.198C398.092 198.198 399.274 197.83 399.852 197.094C400.483 196.359 400.798 194.914 400.798 192.759V152.483C400.798 150.644 400.614 149.33 400.246 148.542C399.931 147.701 399.353 147.281 398.512 147.281C397.724 147.281 396.647 147.596 395.281 148.227H395.202C394.992 148.227 394.834 148.095 394.729 147.833C394.624 147.57 394.624 147.386 394.729 147.281L405.842 142.079L406.158 142C406.368 142 406.604 142.105 406.867 142.315C407.13 142.525 407.261 142.709 407.261 142.867V192.759C407.261 194.914 407.55 196.359 408.128 197.094C408.759 197.83 409.967 198.198 411.754 198.198C411.911 198.198 411.99 198.355 411.99 198.671C411.99 198.986 411.911 199.143 411.754 199.143C410.44 199.143 409.389 199.117 408.601 199.065L404.029 198.986L399.458 199.065C398.67 199.117 397.619 199.143 396.305 199.143Z" fill="#1F2B1F"/>
<path d="M432.376 200.089C429.171 200.089 426.386 199.38 424.022 197.961C421.71 196.542 419.923 194.677 418.662 192.365C417.453 190.053 416.849 187.557 416.849 184.877C416.849 181.777 417.611 178.94 419.135 176.365C420.659 173.79 422.734 171.767 425.362 170.296C428.041 168.772 431.01 168.01 434.268 168.01C437.421 168.01 439.838 168.772 441.519 170.296C443.253 171.82 444.12 174.079 444.12 177.074C444.12 177.862 444.042 178.44 443.884 178.808C443.779 179.176 443.569 179.36 443.253 179.36H436.79C437.053 172.844 435.266 169.586 431.431 169.586C429.066 169.586 427.201 170.664 425.834 172.818C424.521 174.972 423.864 177.889 423.864 181.567C423.864 186.191 424.941 189.869 427.096 192.602C429.25 195.281 432.298 196.621 436.238 196.621C437.71 196.621 438.945 196.437 439.943 196.07C440.941 195.702 442.255 195.097 443.884 194.257L444.042 194.178C444.147 194.178 444.252 194.283 444.357 194.493C444.514 194.703 444.541 194.861 444.436 194.966C442.544 196.753 440.626 198.066 438.682 198.907C436.738 199.695 434.636 200.089 432.376 200.089ZM421.499 178.099L438.997 177.784V179.36L421.578 179.439L421.499 178.099Z" fill="#1F2B1F"/>
</svg>
