<svg width="866" height="668" viewBox="0 0 866 668" fill="none" xmlns="http://www.w3.org/2000/svg">
<g filter="url(#filter0_i_469_90)">
<path d="M779.964 178.894C780.365 177.32 781.966 176.367 783.54 176.767C785.114 177.168 786.067 178.769 785.667 180.343C784.691 184.181 781.463 191.762 774.055 206.688C766.593 221.722 754.762 244.452 736.38 278.755L734.84 281.782C731.361 288.647 728.651 294.166 726.423 298.746C723.885 303.963 721.944 308.018 720.21 311.434C716.701 318.347 714.12 322.455 710.305 327.878C709.37 329.208 707.535 329.527 706.206 328.592C704.877 327.658 704.558 325.823 705.492 324.494C709.167 319.269 711.597 315.401 714.963 308.77C716.667 305.414 718.567 301.443 721.132 296.171C723.689 290.916 726.882 284.419 731.139 276.08L731.152 276.054L731.166 276.028C749.556 241.709 761.361 219.029 768.784 204.072C776.264 189.001 779.172 182.008 779.964 178.894Z" fill="white"/>
<path fill-rule="evenodd" clip-rule="evenodd" d="M302.917 22.6783C313.463 19.3534 324.045 17.1336 332.756 17.7574C337.14 18.0713 341.227 19.1165 344.618 21.2613C348.066 23.4415 350.629 26.6572 352.047 30.9732C353.962 36.8032 353.632 44.4687 352.625 52.2496C351.61 60.0932 349.801 68.7009 348.428 76.4068C347.023 84.2917 346.09 91.1626 346.559 96.1099C346.792 98.5698 347.346 100.217 348.077 101.235C348.58 101.934 349.245 102.453 350.275 102.714C350.751 102.17 351.137 101.648 351.973 100.666C353.414 98.9724 355.885 96.3221 359.432 95.8629C377.024 93.5853 403.415 91.467 426.996 92.3258C438.776 92.7547 449.984 93.9296 459.086 96.2545C468.016 98.5353 475.658 102.102 479.347 107.885C481.913 111.909 483.979 117.043 483.559 123.082C482.785 134.195 481.128 145.546 472.324 155.109C459.79 168.726 448.412 180.07 437.6 187.914C426.786 195.758 416.227 200.33 405.376 199.898C380.279 198.898 358.917 191.36 349.814 186.356C348.39 185.573 347.87 183.784 348.653 182.36C349.435 180.936 351.224 180.416 352.648 181.199C360.926 185.749 381.394 193.053 405.611 194.018C414.584 194.376 423.84 190.626 434.145 183.151C444.45 175.676 455.493 164.704 467.994 151.124C475.342 143.142 476.929 133.595 477.689 122.673C477.995 118.274 476.514 114.386 474.386 111.049C471.985 107.286 466.323 104.177 457.629 101.957C449.107 99.7801 438.371 98.6277 426.781 98.2056C403.625 97.3624 377.577 99.4476 360.188 101.699C359.084 101.842 357.903 102.776 356.454 104.479C355.926 105.1 355.042 106.224 354.497 106.826C354.179 107.177 353.755 107.613 353.254 107.967C352.795 108.292 351.859 108.845 350.624 108.727C347.475 108.427 344.99 107.023 343.298 104.668C341.701 102.444 340.979 99.6092 340.7 96.6646C340.145 90.8026 341.247 83.1683 342.635 75.3746C344.055 67.4019 345.797 59.1565 346.789 51.4937C347.789 43.7682 347.922 37.2728 346.456 32.8101C345.454 29.7587 343.737 27.6658 341.473 26.234C339.153 24.7669 336.098 23.896 332.336 23.6265C324.756 23.0837 315.033 25.0284 304.687 28.2906C284.057 34.7952 262.234 46.0999 252.589 50.7994C243.071 55.4374 236.905 65.282 232.986 75.2359C229.1 85.1042 227.639 94.5227 227.185 97.5826C226.953 99.1438 226.695 100.449 226.396 101.48C226.139 102.366 225.718 103.56 224.873 104.403C224.374 104.901 223.553 105.444 222.441 105.466C221.365 105.488 220.559 105.009 220.083 104.619C219.237 103.923 218.704 102.905 218.371 102.184C217.625 100.568 216.901 98.1782 216.193 95.4908C215.47 92.7497 214.713 89.4954 213.931 86.0455C212.356 79.0979 210.671 71.3404 208.877 64.8843C207.98 61.6573 207.08 58.8428 206.183 56.6695C205.223 54.3433 204.464 53.2569 204.079 52.942C200.314 49.8573 194.628 48.5546 187.21 48.9429C179.838 49.329 171.186 51.3663 161.97 54.4508C143.551 60.6154 123.457 70.7615 107.911 79.231C100.555 83.2388 94.2562 90.4724 88.9231 99.359C83.6093 108.213 79.3949 118.472 76.1018 128.214C75.0527 131.318 74.5384 133.817 74.3967 135.959C88.6622 128.258 103.665 123.767 117.648 127.33C124.523 129.081 130.317 132.698 132.803 138.045C135.176 143.147 135.078 150.291 129.846 155.415C125.011 160.149 119.448 164.263 113.689 166.813C107.939 169.359 101.762 170.439 95.9104 168.704C86.3414 165.865 75.4346 158.982 70.3947 146.505C70.2403 146.123 70.0935 145.739 69.9543 145.353C55.3841 154.435 41.2779 166.635 29.3391 177.279C25.9088 180.337 24.2206 184.774 23.7082 190.199C23.1941 195.643 23.898 201.76 24.9543 207.759C26.7931 218.202 35.0872 226.317 44.3986 235.386C54.2446 244.976 66.549 247.842 79.2668 247.836C92.1252 247.829 104.822 244.921 115.624 243.283C122.3 242.27 127.828 242.792 132.304 244.836C136.828 246.902 139.969 250.382 142.085 254.686C146.2 263.054 146.617 274.925 146.19 287.109C145.749 299.677 144.42 312.566 144.509 324.47C144.598 336.382 146.161 346.004 150.789 351.856C154.499 356.547 160.663 356.374 167.097 353.91C173.847 351.324 179.882 346.239 185.359 340.943C186.716 339.63 188.024 338.32 189.295 337.043C190.56 335.772 191.797 334.525 192.984 333.371C195.319 331.097 197.643 328.992 199.866 327.623C203.244 325.543 206.469 324.425 209.431 324.902C212.622 325.416 214.66 327.616 215.884 330.193C217.073 332.696 217.67 335.871 217.971 339.218C218.276 342.613 218.293 346.436 218.186 350.373C218.078 354.314 217.841 358.45 217.619 362.459C217.397 366.489 217.19 370.389 217.133 373.947C217.076 377.52 217.172 380.629 217.525 383.092C217.895 385.68 218.483 387.02 218.975 387.567C220.65 389.428 223.245 390.559 226.519 390.937C229.783 391.314 233.469 390.903 236.912 389.936C254.832 384.904 266.937 370.42 275.114 355.704C279.182 348.384 282.215 341.117 284.472 335.143C285.601 332.155 286.53 329.505 287.306 327.316C288.059 325.192 288.715 323.361 289.255 322.193C289.543 321.57 289.986 320.79 290.701 320.195C291.557 319.483 292.793 319.072 294.119 319.477C295.189 319.804 295.882 320.541 296.26 321.015C296.68 321.543 297.028 322.153 297.32 322.744C298.445 325.023 299.568 328.785 300.694 332.773C301.858 336.898 303.081 341.479 304.434 345.801C305.794 350.15 307.211 353.98 308.69 356.597C309.781 358.528 310.965 359.311 311.905 359.57C312.839 359.827 313.988 359.693 315.282 358.888C325.704 352.412 331.466 341.727 335.216 331.105C337.085 325.809 338.417 320.642 339.602 316.105C340.746 311.722 341.824 307.607 343.187 304.913C344.628 302.064 346.95 300.279 349.488 299.076C351.964 297.902 354.813 297.206 357.514 296.612C363.218 295.357 368.417 294.455 372.308 291.466C375.709 288.854 377.587 285.078 378.996 280.405C376.692 256.866 364.938 235.65 356.508 225.668C353.76 226.175 351.228 226.734 348.844 227.3C343.996 228.452 339.482 229.704 335.21 230.499C333.329 230.978 331.471 231.577 329.394 232.259C327.31 232.944 325.019 233.707 322.41 234.455C320.106 235.115 317.581 235.748 314.41 236.476C311.072 238.302 306.989 240.222 301.816 242.394C300.318 243.023 298.593 242.319 297.964 240.821C297.847 240.542 297.777 240.256 297.748 239.97C296.433 239.917 295.272 238.983 294.989 237.636C294.657 236.046 295.676 234.487 297.266 234.154C303.746 232.796 308.506 231.786 312.28 230.929C318.186 227.61 321.15 224.761 324.039 221.192C333.036 207.897 337.449 191.113 336.68 175.035C332.165 162.301 325.62 147.988 316.848 135.767C307.97 123.399 296.981 113.403 283.731 109.124C278.348 107.385 274.432 107.486 271.374 109.523C260.715 116.624 247.327 127.692 235.877 140.622C224.385 153.598 215.095 168.169 212.2 182.264C209.607 194.893 207.496 210.521 213.794 224.872C216.822 231.771 219.748 238.497 223.284 244.042C226.818 249.581 230.73 253.563 235.526 255.359C247.753 259.937 263.159 260.383 277.484 258.853C291.782 257.326 304.606 253.875 311.491 250.993C312.99 250.366 314.714 251.072 315.341 252.571C315.968 254.07 315.262 255.793 313.763 256.42C306.252 259.564 292.855 263.128 278.11 264.704C263.39 266.276 246.927 265.912 233.462 260.87C226.941 258.428 222.158 253.217 218.323 247.206C214.492 241.199 211.379 234.013 208.405 227.236C201.309 211.065 203.82 193.818 206.436 181.081C209.633 165.512 219.701 150.013 231.472 136.721C243.284 123.383 257.063 111.985 268.112 104.626C273.358 101.131 279.442 101.555 285.539 103.524C300.433 108.335 312.349 119.409 321.628 132.336C330.631 144.878 337.31 159.382 341.932 172.242L342.373 173.481L342.514 173.879L342.536 174.301C343.47 191.756 338.725 210.047 328.841 224.597L328.774 224.697L328.697 224.792C328.118 225.511 327.533 226.201 326.934 226.871C327.142 226.802 327.35 226.736 327.557 226.669C329.653 225.98 331.711 225.314 333.839 224.776L333.932 224.752L334.028 224.734C338.145 223.975 342.275 222.812 347.484 221.575C348.699 221.286 349.958 220.999 351.268 220.717C347.75 217.908 343.886 215.398 339.263 212.804C337.846 212.009 337.342 210.216 338.137 208.799C338.932 207.382 340.726 206.878 342.143 207.673C348.59 211.291 353.812 214.857 358.684 219.325C360.888 218.975 363.227 218.662 365.726 218.408C380.178 216.937 399.737 217.406 429.015 223.382C487.476 235.316 525.467 244.288 550.762 252.569C576.029 260.841 589.07 268.556 597.179 278.253C607.93 291.109 631.319 320.121 651.634 372.084C652.245 370.989 653.517 370.368 654.809 370.639C666.287 373.049 671.562 373.027 677.849 372.359C680.604 371.949 683.627 371.332 686.848 370.527C688.441 356.247 690.747 338.462 693.574 319.395C699.201 281.448 706.94 238.086 715.377 206.587C725.869 167.416 760.247 145.873 797.259 130.253C814.069 123.158 832.753 125.578 843.097 130.503C845.589 131.689 847.125 133.707 847.538 136.32C847.911 138.681 847.324 141.261 846.378 143.787C844.476 148.865 840.499 155.27 835.788 162.447C826.214 177.033 813.063 195.612 804.38 216.057C785.237 261.13 773.583 290.903 763.804 312.014C753.977 333.229 745.859 346.13 733.585 357.484L733.34 357.71L733.051 357.876C719.579 365.605 704.876 371.612 692.26 375.176C690.983 387.095 690.282 396.016 690.282 400.412C690.282 402.036 688.966 403.354 687.341 403.354C685.716 403.354 684.399 402.036 684.399 400.412C684.399 396.068 685.029 387.745 686.177 376.742C683.52 377.356 680.996 377.843 678.642 378.191L678.583 378.2L678.525 378.206C671.533 378.952 665.638 378.925 653.6 376.398C653.482 376.373 653.368 376.338 653.256 376.3C660.68 395.91 667.63 418.662 673.318 444.899C686.958 507.827 698.224 565.876 702.903 606.319C704.528 620.369 705.59 630.246 706.246 636.716C706.89 643.061 707.164 646.318 707.164 646.919C707.164 648.544 705.847 649.862 704.222 649.862C702.597 649.862 701.28 648.544 701.28 646.919C701.28 646.953 701.276 646.81 701.239 646.329C701.207 645.903 701.157 645.296 701.086 644.494C700.944 642.89 700.719 640.528 700.393 637.31C699.74 630.873 698.681 621.025 697.058 606.995C692.416 566.867 681.206 509.068 667.567 446.146C646.299 348.034 607.261 299.482 592.665 282.028C585.637 273.623 573.894 266.334 548.931 258.162C523.994 249.998 486.306 241.083 427.838 229.148C399.016 223.264 380.065 222.863 366.322 224.262C365.252 224.371 364.213 224.492 363.202 224.622C372.095 236.325 382.8 257.321 384.911 280.427L384.962 280.981L384.808 281.515C383.258 286.855 380.908 292.279 375.893 296.132C370.708 300.115 363.888 301.235 358.779 302.359C356.073 302.954 353.817 303.536 352.008 304.393C350.262 305.221 349.121 306.218 348.438 307.569C347.427 309.567 346.51 312.942 345.296 317.591C344.122 322.087 342.73 327.495 340.765 333.063C336.845 344.169 330.491 356.366 318.389 363.886C315.976 365.386 313.146 366.015 310.342 365.243C307.543 364.472 305.228 362.432 303.567 359.492C301.762 356.298 300.194 351.959 298.818 347.559C297.432 343.132 296.163 338.383 295.03 334.372C294.362 332.002 293.753 329.949 293.199 328.307C293.089 328.616 292.973 328.94 292.852 329.282C292.083 331.451 291.131 334.166 289.976 337.223C287.664 343.34 284.516 350.897 280.258 358.561C271.784 373.812 258.658 389.941 238.503 395.601C234.489 396.728 230.022 397.265 225.844 396.783C221.676 396.302 217.54 394.77 214.601 391.503C212.872 389.582 212.102 386.729 211.7 383.927C211.281 381.002 211.19 377.527 211.249 373.852C211.309 370.162 211.522 366.149 211.744 362.133C211.968 358.096 212.199 354.053 212.304 350.212C212.409 346.368 212.384 342.806 212.11 339.745C211.831 336.637 211.312 334.283 210.569 332.718C209.86 331.227 209.149 330.817 208.495 330.711C207.612 330.569 205.893 330.822 202.952 332.633C201.335 333.63 199.415 335.321 197.088 337.586C195.943 338.701 194.745 339.909 193.466 341.194C192.194 342.472 190.851 343.818 189.449 345.173C183.887 350.553 177.134 356.366 169.202 359.405C162.297 362.05 152.468 363.466 146.173 355.506C140.195 347.947 138.714 336.468 138.624 324.515C138.535 312.554 139.891 298.811 140.309 286.903C140.74 274.611 140.185 264.16 136.804 257.283C135.172 253.965 132.932 251.591 129.86 250.188C126.738 248.763 122.451 248.2 116.507 249.101C106.287 250.651 92.7178 253.713 79.2697 253.72C65.6811 253.727 51.6359 250.65 40.2922 239.601C31.3808 230.922 21.3908 221.458 19.1584 208.78C18.0773 202.64 17.2597 195.894 17.8498 189.645C18.4418 183.377 20.4846 177.29 25.4231 172.887C37.8006 161.852 52.8884 148.789 68.5656 139.299C68.5114 138.709 68.4804 138.106 68.4729 137.487C68.4325 134.184 69.0853 130.595 70.5266 126.331C73.892 116.374 78.2648 105.683 83.8772 96.3306C89.4704 87.0107 96.4377 78.7806 105.097 74.0631C120.71 65.557 141.173 55.2059 160.102 48.8707C169.559 45.7054 178.779 43.4924 186.902 43.067C194.978 42.644 202.41 43.9684 207.808 48.3902C209.441 49.7285 210.657 52.0863 211.622 54.4254C212.651 56.9176 213.625 59.9916 214.547 63.3082C216.39 69.9404 218.117 77.8947 219.67 84.7437C220.433 88.1062 221.153 91.2004 221.831 93.7935C222.616 89.2389 224.262 81.3302 227.51 73.0806C231.615 62.656 238.501 51.1182 250.012 45.5093C259.451 40.9103 281.763 29.3481 302.917 22.6783ZM840.568 135.815C831.591 131.542 814.664 129.295 799.547 135.674C762.775 151.193 730.791 171.784 721.061 208.11C712.712 239.279 705.012 282.377 699.396 320.258C696.717 338.327 694.526 355.132 692.963 368.84C704.432 365.392 717.611 359.915 729.83 352.937C741.16 342.387 748.849 330.301 758.465 309.542C768.197 288.531 779.717 259.074 798.964 213.756C807.909 192.694 821.46 173.552 830.869 159.217C835.65 151.934 839.237 146.078 840.868 141.722C841.689 139.533 841.862 138.102 841.726 137.239C841.629 136.627 841.386 136.205 840.568 135.815ZM116.195 133.032C103.701 129.849 89.5547 134.126 75.1291 142.275C75.3326 142.943 75.5736 143.615 75.8508 144.301C80.0259 154.637 89.1688 160.566 97.5842 163.063C101.661 164.272 106.347 163.628 111.306 161.432C116.256 159.241 121.249 155.597 125.729 151.211C128.819 148.184 129.018 143.86 127.467 140.525C126.029 137.433 122.204 134.563 116.195 133.032Z" fill="white"/>
</g>
<path d="M779.964 178.894C780.365 177.32 781.966 176.367 783.54 176.767C785.114 177.168 786.067 178.769 785.667 180.343C784.691 184.181 781.463 191.762 774.055 206.688C766.593 221.722 754.762 244.452 736.38 278.755L734.84 281.782C731.361 288.647 728.651 294.166 726.423 298.746C723.885 303.963 721.944 308.018 720.21 311.434C716.701 318.347 714.12 322.455 710.305 327.878C709.37 329.208 707.535 329.527 706.206 328.592C704.877 327.658 704.558 325.823 705.492 324.494C709.167 319.269 711.597 315.401 714.963 308.77C716.667 305.414 718.567 301.443 721.132 296.171C723.689 290.916 726.882 284.419 731.139 276.08L731.152 276.054L731.166 276.028C749.556 241.709 761.361 219.029 768.784 204.072C776.264 189.001 779.172 182.008 779.964 178.894Z" stroke="white" stroke-width="35.3066" stroke-linecap="round"/>
<path fill-rule="evenodd" clip-rule="evenodd" d="M302.917 22.6783C313.463 19.3534 324.045 17.1336 332.756 17.7574C337.14 18.0713 341.227 19.1165 344.618 21.2613C348.066 23.4415 350.629 26.6572 352.047 30.9732C353.962 36.8032 353.632 44.4687 352.625 52.2496C351.61 60.0932 349.801 68.7009 348.428 76.4068C347.023 84.2917 346.09 91.1626 346.559 96.1099C346.792 98.5698 347.346 100.217 348.077 101.235C348.58 101.934 349.245 102.453 350.275 102.714C350.751 102.17 351.137 101.648 351.973 100.666C353.414 98.9724 355.885 96.3221 359.432 95.8629C377.024 93.5853 403.415 91.467 426.996 92.3258C438.776 92.7547 449.984 93.9296 459.086 96.2545C468.016 98.5353 475.658 102.102 479.347 107.885C481.913 111.909 483.979 117.043 483.559 123.082C482.785 134.195 481.128 145.546 472.324 155.109C459.79 168.726 448.412 180.07 437.6 187.914C426.786 195.758 416.227 200.33 405.376 199.898C380.279 198.898 358.917 191.36 349.814 186.356C348.39 185.573 347.87 183.784 348.653 182.36C349.435 180.936 351.224 180.416 352.648 181.199C360.926 185.749 381.394 193.053 405.611 194.018C414.584 194.376 423.84 190.626 434.145 183.151C444.45 175.676 455.493 164.704 467.994 151.124C475.342 143.142 476.929 133.595 477.689 122.673C477.995 118.274 476.514 114.386 474.386 111.049C471.985 107.286 466.323 104.177 457.629 101.957C449.107 99.7801 438.371 98.6277 426.781 98.2056C403.625 97.3624 377.577 99.4476 360.188 101.699C359.084 101.842 357.903 102.776 356.454 104.479C355.926 105.1 355.042 106.224 354.497 106.826C354.179 107.177 353.755 107.613 353.254 107.967C352.795 108.292 351.859 108.845 350.624 108.727C347.475 108.427 344.99 107.023 343.298 104.668C341.701 102.444 340.979 99.6092 340.7 96.6646C340.145 90.8026 341.247 83.1683 342.635 75.3746C344.055 67.4019 345.797 59.1565 346.789 51.4937C347.789 43.7682 347.922 37.2728 346.456 32.8101C345.454 29.7587 343.737 27.6658 341.473 26.234C339.153 24.7669 336.098 23.896 332.336 23.6265C324.756 23.0837 315.033 25.0284 304.687 28.2906C284.057 34.7952 262.234 46.0999 252.589 50.7994C243.071 55.4374 236.905 65.282 232.986 75.2359C229.1 85.1042 227.639 94.5227 227.185 97.5826C226.953 99.1438 226.695 100.449 226.396 101.48C226.139 102.366 225.718 103.56 224.873 104.403C224.374 104.901 223.553 105.444 222.441 105.466C221.365 105.488 220.559 105.009 220.083 104.619C219.237 103.923 218.704 102.905 218.371 102.184C217.625 100.568 216.901 98.1782 216.193 95.4908C215.47 92.7497 214.713 89.4954 213.931 86.0455C212.356 79.0979 210.671 71.3404 208.877 64.8843C207.98 61.6573 207.08 58.8428 206.183 56.6695C205.223 54.3433 204.464 53.2569 204.079 52.942C200.314 49.8573 194.628 48.5546 187.21 48.9429C179.838 49.329 171.186 51.3663 161.97 54.4508C143.551 60.6154 123.457 70.7615 107.911 79.231C100.555 83.2388 94.2562 90.4724 88.9231 99.359C83.6093 108.213 79.3949 118.472 76.1018 128.214C75.0527 131.318 74.5384 133.817 74.3967 135.959C88.6622 128.258 103.665 123.767 117.648 127.33C124.523 129.081 130.317 132.698 132.803 138.045C135.176 143.147 135.078 150.291 129.846 155.415C125.011 160.149 119.448 164.263 113.689 166.813C107.939 169.359 101.762 170.439 95.9104 168.704C86.3414 165.865 75.4346 158.982 70.3947 146.505C70.2403 146.123 70.0935 145.739 69.9543 145.353C55.3841 154.435 41.2779 166.635 29.3391 177.279C25.9088 180.337 24.2206 184.774 23.7082 190.199C23.1941 195.643 23.898 201.76 24.9543 207.759C26.7931 218.202 35.0872 226.317 44.3986 235.386C54.2446 244.976 66.549 247.842 79.2668 247.836C92.1252 247.829 104.822 244.921 115.624 243.283C122.3 242.27 127.828 242.792 132.304 244.836C136.828 246.902 139.969 250.382 142.085 254.686C146.2 263.054 146.617 274.925 146.19 287.109C145.749 299.677 144.42 312.566 144.509 324.47C144.598 336.382 146.161 346.004 150.789 351.856C154.499 356.547 160.663 356.374 167.097 353.91C173.847 351.324 179.882 346.239 185.359 340.943C186.716 339.63 188.024 338.32 189.295 337.043C190.56 335.772 191.797 334.525 192.984 333.371C195.319 331.097 197.643 328.992 199.866 327.623C203.244 325.543 206.469 324.425 209.431 324.902C212.622 325.416 214.66 327.616 215.884 330.193C217.073 332.696 217.67 335.871 217.971 339.218C218.276 342.613 218.293 346.436 218.186 350.373C218.078 354.314 217.841 358.45 217.619 362.459C217.397 366.489 217.19 370.389 217.133 373.947C217.076 377.52 217.172 380.629 217.525 383.092C217.895 385.68 218.483 387.02 218.975 387.567C220.65 389.428 223.245 390.559 226.519 390.937C229.783 391.314 233.469 390.903 236.912 389.936C254.832 384.904 266.937 370.42 275.114 355.704C279.182 348.384 282.215 341.117 284.472 335.143C285.601 332.155 286.53 329.505 287.306 327.316C288.059 325.192 288.715 323.361 289.255 322.193C289.543 321.57 289.986 320.79 290.701 320.195C291.557 319.483 292.793 319.072 294.119 319.477C295.189 319.804 295.882 320.541 296.26 321.015C296.68 321.543 297.028 322.153 297.32 322.744C298.445 325.023 299.568 328.785 300.694 332.773C301.858 336.898 303.081 341.479 304.434 345.801C305.794 350.15 307.211 353.98 308.69 356.597C309.781 358.528 310.965 359.311 311.905 359.57C312.839 359.827 313.988 359.693 315.282 358.888C325.704 352.412 331.466 341.727 335.216 331.105C337.085 325.809 338.417 320.642 339.602 316.105C340.746 311.722 341.824 307.607 343.187 304.913C344.628 302.064 346.95 300.279 349.488 299.076C351.964 297.902 354.813 297.206 357.514 296.612C363.218 295.357 368.417 294.455 372.308 291.466C375.709 288.854 377.587 285.078 378.996 280.405C376.692 256.866 364.938 235.65 356.508 225.668C353.76 226.175 351.228 226.734 348.844 227.3C343.996 228.452 339.482 229.704 335.21 230.499C333.329 230.978 331.471 231.577 329.394 232.259C327.31 232.944 325.019 233.707 322.41 234.455C320.106 235.115 317.581 235.748 314.41 236.476C311.072 238.302 306.989 240.222 301.816 242.394C300.318 243.023 298.593 242.319 297.964 240.821C297.847 240.542 297.777 240.256 297.748 239.97C296.433 239.917 295.272 238.983 294.989 237.636C294.657 236.046 295.676 234.487 297.266 234.154C303.746 232.796 308.506 231.786 312.28 230.929C318.186 227.61 321.15 224.761 324.039 221.192C333.036 207.897 337.449 191.113 336.68 175.035C332.165 162.301 325.62 147.988 316.848 135.767C307.97 123.399 296.981 113.403 283.731 109.124C278.348 107.385 274.432 107.486 271.374 109.523C260.715 116.624 247.327 127.692 235.877 140.622C224.385 153.598 215.095 168.169 212.2 182.264C209.607 194.893 207.496 210.521 213.794 224.872C216.822 231.771 219.748 238.497 223.284 244.042C226.818 249.581 230.73 253.563 235.526 255.359C247.753 259.937 263.159 260.383 277.484 258.853C291.782 257.326 304.606 253.875 311.491 250.993C312.99 250.366 314.714 251.072 315.341 252.571C315.968 254.07 315.262 255.793 313.763 256.42C306.252 259.564 292.855 263.128 278.11 264.704C263.39 266.276 246.927 265.912 233.462 260.87C226.941 258.428 222.158 253.217 218.323 247.206C214.492 241.199 211.379 234.013 208.405 227.236C201.309 211.065 203.82 193.818 206.436 181.081C209.633 165.512 219.701 150.013 231.472 136.721C243.284 123.383 257.063 111.985 268.112 104.626C273.358 101.131 279.442 101.555 285.539 103.524C300.433 108.335 312.349 119.409 321.628 132.336C330.631 144.878 337.31 159.382 341.932 172.242L342.373 173.481L342.514 173.879L342.536 174.301C343.47 191.756 338.725 210.047 328.841 224.597L328.774 224.697L328.697 224.792C328.118 225.511 327.533 226.201 326.934 226.871C327.142 226.802 327.35 226.736 327.557 226.669C329.653 225.98 331.711 225.314 333.839 224.776L333.932 224.752L334.028 224.734C338.145 223.975 342.275 222.812 347.484 221.575C348.699 221.286 349.958 220.999 351.268 220.717C347.75 217.908 343.886 215.398 339.263 212.804C337.846 212.009 337.342 210.216 338.137 208.799C338.932 207.382 340.726 206.878 342.143 207.673C348.59 211.291 353.812 214.857 358.684 219.325C360.888 218.975 363.227 218.662 365.726 218.408C380.178 216.937 399.737 217.406 429.015 223.382C487.476 235.316 525.467 244.288 550.762 252.569C576.029 260.841 589.07 268.556 597.179 278.253C607.93 291.109 631.319 320.121 651.634 372.084C652.245 370.989 653.517 370.368 654.809 370.639C666.287 373.049 671.562 373.027 677.849 372.359C680.604 371.949 683.627 371.332 686.848 370.527C688.441 356.247 690.747 338.462 693.574 319.395C699.201 281.448 706.94 238.086 715.377 206.587C725.869 167.416 760.247 145.873 797.259 130.253C814.069 123.158 832.753 125.578 843.097 130.503C845.589 131.689 847.125 133.707 847.538 136.32C847.911 138.681 847.324 141.261 846.378 143.787C844.476 148.865 840.499 155.27 835.788 162.447C826.214 177.033 813.063 195.612 804.38 216.057C785.237 261.13 773.583 290.903 763.804 312.014C753.977 333.229 745.859 346.13 733.585 357.484L733.34 357.71L733.051 357.876C719.579 365.605 704.876 371.612 692.26 375.176C690.983 387.095 690.282 396.016 690.282 400.412C690.282 402.036 688.966 403.354 687.341 403.354C685.716 403.354 684.399 402.036 684.399 400.412C684.399 396.068 685.029 387.745 686.177 376.742C683.52 377.356 680.996 377.843 678.642 378.191L678.583 378.2L678.525 378.206C671.533 378.952 665.638 378.925 653.6 376.398C653.482 376.373 653.368 376.338 653.256 376.3C660.68 395.91 667.63 418.662 673.318 444.899C686.958 507.827 698.224 565.876 702.903 606.319C704.528 620.369 705.59 630.246 706.246 636.716C706.89 643.061 707.164 646.318 707.164 646.919C707.164 648.544 705.847 649.862 704.222 649.862C702.597 649.862 701.28 648.544 701.28 646.919C701.28 646.953 701.276 646.81 701.239 646.329C701.207 645.903 701.157 645.296 701.086 644.494C700.944 642.89 700.719 640.528 700.393 637.31C699.74 630.873 698.681 621.025 697.058 606.995C692.416 566.867 681.206 509.068 667.567 446.146C646.299 348.034 607.261 299.482 592.665 282.028C585.637 273.623 573.894 266.334 548.931 258.162C523.994 249.998 486.306 241.083 427.838 229.148C399.016 223.264 380.065 222.863 366.322 224.262C365.252 224.371 364.213 224.492 363.202 224.622C372.095 236.325 382.8 257.321 384.911 280.427L384.962 280.981L384.808 281.515C383.258 286.855 380.908 292.279 375.893 296.132C370.708 300.115 363.888 301.235 358.779 302.359C356.073 302.954 353.817 303.536 352.008 304.393C350.262 305.221 349.121 306.218 348.438 307.569C347.427 309.567 346.51 312.942 345.296 317.591C344.122 322.087 342.73 327.495 340.765 333.063C336.845 344.169 330.491 356.366 318.389 363.886C315.976 365.386 313.146 366.015 310.342 365.243C307.543 364.472 305.228 362.432 303.567 359.492C301.762 356.298 300.194 351.959 298.818 347.559C297.432 343.132 296.163 338.383 295.03 334.372C294.362 332.002 293.753 329.949 293.199 328.307C293.089 328.616 292.973 328.94 292.852 329.282C292.083 331.451 291.131 334.166 289.976 337.223C287.664 343.34 284.516 350.897 280.258 358.561C271.784 373.812 258.658 389.941 238.503 395.601C234.489 396.728 230.022 397.265 225.844 396.783C221.676 396.302 217.54 394.77 214.601 391.503C212.872 389.582 212.102 386.729 211.7 383.927C211.281 381.002 211.19 377.527 211.249 373.852C211.309 370.162 211.522 366.149 211.744 362.133C211.968 358.096 212.199 354.053 212.304 350.212C212.409 346.368 212.384 342.806 212.11 339.745C211.831 336.637 211.312 334.283 210.569 332.718C209.86 331.227 209.149 330.817 208.495 330.711C207.612 330.569 205.893 330.822 202.952 332.633C201.335 333.63 199.415 335.321 197.088 337.586C195.943 338.701 194.745 339.909 193.466 341.194C192.194 342.472 190.851 343.818 189.449 345.173C183.887 350.553 177.134 356.366 169.202 359.405C162.297 362.05 152.468 363.466 146.173 355.506C140.195 347.947 138.714 336.468 138.624 324.515C138.535 312.554 139.891 298.811 140.309 286.903C140.74 274.611 140.185 264.16 136.804 257.283C135.172 253.965 132.932 251.591 129.86 250.188C126.738 248.763 122.451 248.2 116.507 249.101C106.287 250.651 92.7178 253.713 79.2697 253.72C65.6811 253.727 51.6359 250.65 40.2922 239.601C31.3808 230.922 21.3908 221.458 19.1584 208.78C18.0773 202.64 17.2597 195.894 17.8498 189.645C18.4418 183.377 20.4846 177.29 25.4231 172.887C37.8006 161.852 52.8884 148.789 68.5656 139.299C68.5114 138.709 68.4804 138.106 68.4729 137.487C68.4325 134.184 69.0853 130.595 70.5266 126.331C73.892 116.374 78.2648 105.683 83.8772 96.3306C89.4704 87.0107 96.4377 78.7806 105.097 74.0631C120.71 65.557 141.173 55.2059 160.102 48.8707C169.559 45.7054 178.779 43.4924 186.902 43.067C194.978 42.644 202.41 43.9684 207.808 48.3902C209.441 49.7285 210.657 52.0863 211.622 54.4254C212.651 56.9176 213.625 59.9916 214.547 63.3082C216.39 69.9404 218.117 77.8947 219.67 84.7437C220.433 88.1062 221.153 91.2004 221.831 93.7935C222.616 89.2389 224.262 81.3302 227.51 73.0806C231.615 62.656 238.501 51.1182 250.012 45.5093C259.451 40.9103 281.763 29.3481 302.917 22.6783ZM840.568 135.815C831.591 131.542 814.664 129.295 799.547 135.674C762.775 151.193 730.791 171.784 721.061 208.11C712.712 239.279 705.012 282.377 699.396 320.258C696.717 338.327 694.526 355.132 692.963 368.84C704.432 365.392 717.611 359.915 729.83 352.937C741.16 342.387 748.849 330.301 758.465 309.542C768.197 288.531 779.717 259.074 798.964 213.756C807.909 192.694 821.46 173.552 830.869 159.217C835.65 151.934 839.237 146.078 840.868 141.722C841.689 139.533 841.862 138.102 841.726 137.239C841.629 136.627 841.386 136.205 840.568 135.815ZM116.195 133.032C103.701 129.849 89.5547 134.126 75.1291 142.275C75.3326 142.943 75.5736 143.615 75.8508 144.301C80.0259 154.637 89.1688 160.566 97.5842 163.063C101.661 164.272 106.347 163.628 111.306 161.432C116.256 159.241 121.249 155.597 125.729 151.211C128.819 148.184 129.018 143.86 127.467 140.525C126.029 137.433 122.204 134.563 116.195 133.032Z" stroke="white" stroke-width="35.3066" stroke-linecap="round"/>
<defs>
<filter id="filter0_i_469_90" x="0" y="0" width="865.304" height="679.284" filterUnits="userSpaceOnUse" color-interpolation-filters="sRGB">
<feFlood flood-opacity="0" result="BackgroundImageFix"/>
<feBlend mode="normal" in="SourceGraphic" in2="BackgroundImageFix" result="shape"/>
<feColorMatrix in="SourceAlpha" type="matrix" values="0 0 0 0 0 0 0 0 0 0 0 0 0 0 0 0 0 0 127 0" result="hardAlpha"/>
<feOffset dy="11.7689"/>
<feGaussianBlur stdDeviation="5.88444"/>
<feComposite in2="hardAlpha" operator="arithmetic" k2="-1" k3="1"/>
<feColorMatrix type="matrix" values="0 0 0 0 0 0 0 0 0 0 0 0 0 0 0 0 0 0 0.25 0"/>
<feBlend mode="normal" in2="shape" result="effect1_innerShadow_469_90"/>
</filter>
</defs>
</svg>
