<svg width="148" height="143" viewBox="0 0 148 143" fill="none" xmlns="http://www.w3.org/2000/svg">
<path d="M3.49044 139.12C2.63799 139.12 1.90074 138.936 1.27868 138.567C0.656618 138.199 0.345588 137.738 0.345588 137.185C0.345588 136.816 0.449265 136.528 0.656618 136.321C0.88701 136.114 1.14044 136.01 1.41691 136.01C1.62426 136.01 1.78554 136.079 1.90074 136.217C2.03897 136.356 2.20025 136.586 2.38456 136.909C2.66103 137.369 2.9375 137.727 3.21397 137.98C3.51348 138.233 3.95123 138.36 4.52721 138.36C5.79436 138.36 6.53162 137.657 6.73897 136.252C6.76201 136.137 6.77353 135.987 6.77353 135.803C6.77353 135.135 6.58922 134.559 6.22059 134.075C5.85196 133.591 5.27598 133.027 4.49265 132.381C3.73235 131.759 3.15637 131.218 2.76471 130.757C2.39608 130.273 2.21176 129.697 2.21176 129.029C2.21176 128.914 2.2348 128.718 2.28088 128.442C2.48824 127.405 3.02966 126.587 3.90515 125.988C4.80368 125.366 5.79436 125.055 6.87721 125.055C7.70662 125.055 8.39779 125.228 8.95074 125.573C9.50368 125.896 9.74559 126.299 9.67647 126.783C9.60735 127.082 9.46912 127.313 9.26176 127.474C9.07745 127.635 8.85858 127.716 8.60515 127.716C8.35172 127.716 8.13284 127.647 7.94853 127.509C7.78725 127.37 7.60294 127.163 7.39559 126.887C7.14216 126.518 6.88873 126.253 6.63529 126.092C6.4049 125.907 6.07083 125.815 5.63309 125.815C5.08015 125.815 4.63088 125.977 4.28529 126.299C3.96275 126.599 3.80147 127.048 3.80147 127.647C3.80147 128.269 3.98578 128.822 4.35441 129.306C4.72304 129.789 5.27598 130.354 6.01324 130.999C6.79657 131.69 7.38407 132.301 7.77574 132.831C8.1674 133.338 8.36324 133.937 8.36324 134.628C8.36324 135.342 8.14436 136.056 7.70662 136.77C7.26887 137.462 6.66985 138.026 5.90956 138.464C5.1723 138.902 4.36593 139.12 3.49044 139.12ZM15.8541 139.189C14.3566 139.189 13.2392 138.683 12.5019 137.669C11.7877 136.632 11.4306 135.353 11.4306 133.833C11.4306 133.096 11.4997 132.404 11.638 131.759C11.9144 130.377 12.4443 129.167 13.2277 128.131C14.011 127.094 14.921 126.311 15.9578 125.781C16.9946 125.228 18.0198 124.951 19.0335 124.951C19.8399 124.951 20.5311 125.136 21.1071 125.504C21.7061 125.85 22.0056 126.299 22.0056 126.852C22.0056 127.198 21.9019 127.497 21.6946 127.751C21.5103 127.981 21.2338 128.096 20.8652 128.096C20.2661 128.096 19.8514 127.727 19.621 126.99C19.5289 126.668 19.3331 126.38 19.0335 126.126C18.7571 125.85 18.3539 125.712 17.824 125.712C16.7411 125.712 15.8541 126.172 15.163 127.094C14.4718 128.015 13.9995 129.214 13.746 130.688C13.5848 131.61 13.5041 132.37 13.5041 132.969C13.5041 134.443 13.8267 135.653 14.4718 136.598C15.1169 137.519 16.0615 137.98 17.3056 137.98C18.4806 137.98 19.7017 137.462 20.9688 136.425L21.038 136.39C21.1071 136.39 21.1647 136.436 21.2107 136.528C21.2799 136.621 21.2914 136.69 21.2453 136.736C19.4022 138.372 17.6051 139.189 15.8541 139.189ZM25.8322 138.464C26.1778 136.621 26.7077 134.651 27.4219 132.554C28.1361 130.458 28.931 128.695 29.8064 127.267C30.6819 125.815 31.5229 125.089 32.3292 125.089C32.767 125.089 33.1932 125.251 33.6079 125.573C34.0226 125.896 34.23 126.276 34.23 126.714C34.23 127.059 34.1148 127.347 33.8844 127.578C33.677 127.785 33.4121 127.889 33.0895 127.889C32.8361 127.889 32.6287 127.843 32.4675 127.751C32.3292 127.635 32.1795 127.463 32.0182 127.232C31.9261 127.117 31.8224 127.013 31.7072 126.921C31.592 126.806 31.4653 126.748 31.327 126.748C30.8202 126.748 30.2096 127.416 29.4954 128.753C28.8042 130.089 28.1476 131.69 27.5256 133.556C26.9035 135.423 26.4542 137.07 26.1778 138.498L25.8322 138.464ZM25.0719 139.017C24.7724 139.017 24.565 138.994 24.4498 138.948C24.3577 138.925 24.3116 138.878 24.3116 138.809L24.4844 138.014L24.83 136.183L25.9704 129.789C26.1087 129.029 26.1778 128.43 26.1778 127.992C26.1778 126.956 25.9013 126.437 25.3484 126.437C24.8415 126.437 24.1388 126.864 23.2403 127.716L23.1712 127.751C23.102 127.751 23.0444 127.716 22.9984 127.647C22.9523 127.555 22.9408 127.486 22.9638 127.439C23.678 126.656 24.3346 126.069 24.9337 125.677C25.5327 125.285 26.1202 125.089 26.6962 125.089C27.1569 125.089 27.491 125.239 27.6984 125.539C27.9287 125.838 28.0439 126.345 28.0439 127.059C28.0439 127.681 27.9403 128.568 27.7329 129.72L26.1778 138.498C26.1087 138.844 25.74 139.017 25.0719 139.017ZM38.8009 139.224C37.4416 139.224 36.3703 138.74 35.5869 137.773C34.8267 136.805 34.4465 135.538 34.4465 133.971C34.4465 133.257 34.5041 132.623 34.6193 132.07C34.8727 130.734 35.3566 129.525 36.0708 128.442C36.785 127.359 37.649 126.506 38.6627 125.884C39.6764 125.262 40.7477 124.951 41.8767 124.951C43.3051 124.951 44.411 125.435 45.1943 126.403C45.9776 127.347 46.3693 128.58 46.3693 130.101C46.3693 130.746 46.3002 131.402 46.1619 132.07C45.8855 133.476 45.3671 134.731 44.6068 135.837C43.8465 136.92 42.948 137.761 41.9112 138.36C40.8975 138.936 39.8607 139.224 38.8009 139.224ZM40.0105 138.36C40.9781 138.36 41.8536 137.934 42.6369 137.081C43.4203 136.229 43.9502 135.065 44.2267 133.591C44.3418 133.038 44.3994 132.37 44.3994 131.587C44.3994 129.997 44.0884 128.638 43.4664 127.509C42.8673 126.357 42.0034 125.781 40.8744 125.781C39.8838 125.781 38.9852 126.218 38.1789 127.094C37.3955 127.969 36.8541 129.133 36.5546 130.584C36.4164 131.229 36.3472 131.921 36.3472 132.658C36.3472 134.225 36.6698 135.572 37.3149 136.701C37.96 137.807 38.8585 138.36 40.0105 138.36ZM50.3932 139.051C49.9555 139.051 49.6329 138.936 49.4256 138.706C49.2413 138.452 49.1491 138.038 49.1491 137.462C49.1491 136.978 49.2182 136.379 49.3565 135.664L52.7778 117.348C52.8239 117.164 52.8469 116.911 52.8469 116.588C52.8469 116.012 52.6165 115.724 52.1557 115.724C51.7871 115.724 51.2342 115.897 50.4969 116.242H50.4278C50.3356 116.242 50.2665 116.185 50.2204 116.07C50.1974 115.954 50.232 115.885 50.3241 115.862L54.7822 113.685H54.8513C54.9435 113.685 55.0241 113.72 55.0932 113.789C55.1624 113.858 55.1854 113.915 55.1624 113.962L51.1535 135.664C51.0844 136.01 51.0499 136.321 51.0499 136.598C51.0499 136.943 51.1075 137.208 51.2227 137.392C51.3379 137.577 51.4991 137.669 51.7065 137.669C52.2133 137.669 52.9736 137.139 53.9874 136.079C54.0334 136.033 54.0795 136.01 54.1256 136.01C54.1947 136.01 54.2523 136.056 54.2984 136.148C54.3445 136.217 54.3329 136.287 54.2638 136.356C53.4805 137.277 52.7778 137.957 52.1557 138.395C51.5567 138.832 50.9692 139.051 50.3932 139.051ZM58.5942 139.051C58.1565 139.051 57.8339 138.936 57.6266 138.706C57.4423 138.452 57.3501 138.038 57.3501 137.462C57.3501 136.978 57.4192 136.379 57.5574 135.664L60.9788 117.348C61.0249 117.164 61.0479 116.911 61.0479 116.588C61.0479 116.012 60.8175 115.724 60.3567 115.724C59.9881 115.724 59.4351 115.897 58.6979 116.242H58.6288C58.5366 116.242 58.4675 116.185 58.4214 116.07C58.3984 115.954 58.4329 115.885 58.5251 115.862L62.9832 113.685H63.0523C63.1445 113.685 63.2251 113.72 63.2942 113.789C63.3633 113.858 63.3864 113.915 63.3633 113.962L59.3545 135.664C59.2854 136.01 59.2508 136.321 59.2508 136.598C59.2508 136.943 59.3084 137.208 59.4236 137.392C59.5388 137.577 59.7001 137.669 59.9074 137.669C60.4143 137.669 61.1746 137.139 62.1883 136.079C62.2344 136.033 62.2805 136.01 62.3266 136.01C62.3957 136.01 62.4533 136.056 62.4994 136.148C62.5454 136.217 62.5339 136.287 62.4648 136.356C61.6815 137.277 60.9788 137.957 60.3567 138.395C59.7577 138.832 59.1702 139.051 58.5942 139.051ZM78.3853 139.189C77.4177 139.189 76.5192 138.913 75.6898 138.36C74.8834 137.807 74.2268 137.035 73.7199 136.045C73.2361 135.031 72.9942 133.879 72.9942 132.589C72.9942 130.953 73.3974 129.559 74.2037 128.407C75.0101 127.255 76.0238 126.391 77.2449 125.815C78.466 125.239 79.6755 124.951 80.8736 124.951C82.4633 124.951 83.8687 125.47 85.0898 126.506L84.7096 128.822C84.0876 127.808 83.4079 127.025 82.6706 126.472C81.9334 125.919 81.0233 125.642 79.9405 125.642C78.489 125.642 77.3371 126.161 76.4846 127.198C75.6552 128.211 75.2405 129.663 75.2405 131.552C75.2405 132.819 75.4363 133.937 75.828 134.904C76.2197 135.872 76.7496 136.621 77.4177 137.151C78.1089 137.68 78.8807 137.945 79.7331 137.945C80.6777 137.945 81.5417 137.692 82.3251 137.185C83.1084 136.678 83.9263 135.952 84.7787 135.008L85.0552 135.25C83.9954 136.448 82.9586 137.404 81.9449 138.118C80.9312 138.832 79.7447 139.189 78.3853 139.189ZM86.1265 134.939C86.1265 135.768 86.2187 136.367 86.403 136.736C86.6103 137.104 86.9329 137.289 87.3706 137.289C88.0388 137.289 88.6378 137.127 89.1677 136.805L89.2368 136.77C89.329 136.77 89.3866 136.828 89.4096 136.943C89.4557 137.058 89.4442 137.139 89.3751 137.185L85.5736 138.982C85.4814 139.028 85.3893 139.051 85.2971 139.051C84.9976 139.051 84.7327 138.775 84.5023 138.222C84.2949 137.669 84.1912 136.909 84.1912 135.941V118.109C84.1912 117.279 84.0991 116.68 83.9148 116.312C83.7535 115.943 83.4655 115.759 83.0508 115.759C82.7513 115.759 82.2214 115.92 81.4611 116.242H81.392C81.2998 116.242 81.2307 116.196 81.1846 116.104C81.1616 115.989 81.1846 115.908 81.2537 115.862L85.6427 113.72C85.6888 113.697 85.7464 113.685 85.8155 113.685C85.8846 113.685 85.9537 113.72 86.0228 113.789C86.092 113.835 86.1265 113.892 86.1265 113.962V134.939ZM97.4175 139.189C96.0813 139.189 94.8947 138.867 93.858 138.222C92.8443 137.554 92.0609 136.667 91.508 135.561C90.955 134.432 90.6786 133.211 90.6786 131.898C90.6786 130.4 91.0357 129.133 91.7499 128.096C92.4871 127.036 93.4202 126.253 94.5492 125.746C95.7011 125.216 96.8646 124.951 98.0396 124.951C99.3989 124.951 100.585 125.285 101.599 125.953C102.613 126.622 103.385 127.509 103.915 128.614C104.468 129.697 104.744 130.849 104.744 132.07C104.744 133.499 104.41 134.754 103.742 135.837C103.074 136.897 102.175 137.727 101.046 138.326C99.9403 138.902 98.7308 139.189 97.4175 139.189ZM98.4197 138.533C99.6869 138.533 100.666 138.084 101.357 137.185C102.048 136.287 102.394 134.904 102.394 133.038C102.394 131.61 102.152 130.331 101.668 129.202C101.207 128.073 100.562 127.198 99.733 126.576C98.9036 125.93 97.959 125.608 96.8992 125.608C95.655 125.608 94.6874 126.057 93.9962 126.956C93.3281 127.854 92.994 129.144 92.994 130.826C92.994 132.232 93.2244 133.522 93.6852 134.697C94.146 135.872 94.7911 136.805 95.6205 137.496C96.4499 138.187 97.383 138.533 98.4197 138.533ZM116.443 128.269C115.982 127.278 115.602 126.622 115.302 126.299C115.003 125.977 114.634 125.815 114.196 125.815C114.15 125.815 114.127 125.746 114.127 125.608C114.127 125.47 114.15 125.401 114.196 125.401C114.657 125.401 115.003 125.412 115.233 125.435L116.512 125.47L118.758 125.435C119.081 125.412 119.518 125.401 120.071 125.401C120.141 125.401 120.175 125.47 120.175 125.608C120.175 125.746 120.141 125.815 120.071 125.815C118.735 125.815 118.067 126.092 118.067 126.645C118.067 126.806 118.113 126.979 118.205 127.163L122.629 136.598L121.661 137.98L125.67 128.165C125.831 127.82 125.912 127.486 125.912 127.163C125.912 126.702 125.693 126.368 125.255 126.161C124.817 125.93 124.126 125.815 123.182 125.815C123.136 125.815 123.113 125.746 123.113 125.608C123.113 125.47 123.136 125.401 123.182 125.401C123.804 125.401 124.276 125.412 124.599 125.435L126.672 125.47L127.916 125.435C128.147 125.412 128.504 125.401 128.988 125.401C129.057 125.401 129.091 125.47 129.091 125.608C129.091 125.746 129.057 125.815 128.988 125.815C128.435 125.815 127.951 126 127.536 126.368C127.144 126.737 126.753 127.393 126.361 128.338L122.041 138.706C122.018 138.798 121.891 138.844 121.661 138.844C121.431 138.844 121.304 138.798 121.281 138.706L116.443 128.269ZM108.287 128.269C107.826 127.278 107.434 126.622 107.112 126.299C106.812 125.977 106.432 125.815 105.971 125.815C105.902 125.815 105.868 125.746 105.868 125.608C105.868 125.47 105.902 125.401 105.971 125.401C106.432 125.401 106.789 125.412 107.043 125.435L108.356 125.47L110.429 125.435C110.775 125.412 111.27 125.401 111.916 125.401C111.985 125.401 112.019 125.47 112.019 125.608C112.019 125.746 111.985 125.815 111.916 125.815C111.27 125.815 110.775 125.884 110.429 126.023C110.084 126.138 109.911 126.345 109.911 126.645C109.911 126.806 109.957 126.979 110.049 127.163L114.507 136.598L113.471 137.98L117.238 128.891L117.825 129.271L113.885 138.706C113.862 138.798 113.736 138.844 113.505 138.844C113.275 138.844 113.148 138.798 113.125 138.706L108.287 128.269ZM140.008 138.74C139.939 138.74 139.905 138.671 139.905 138.533C139.905 138.395 139.939 138.326 140.008 138.326C140.63 138.326 141.091 138.268 141.391 138.153C141.69 138.014 141.886 137.784 141.978 137.462C142.093 137.139 142.151 136.632 142.151 135.941V130.342C142.151 128.96 141.886 127.958 141.356 127.336C140.849 126.691 140.054 126.368 138.972 126.368C138.119 126.368 137.255 126.633 136.38 127.163C135.527 127.693 134.79 128.419 134.168 129.34L134.03 128.926C135.043 127.566 136.046 126.564 137.036 125.919C138.027 125.274 139.052 124.951 140.112 124.951C141.379 124.951 142.358 125.32 143.049 126.057C143.764 126.771 144.121 127.808 144.121 129.167V135.941C144.121 136.632 144.167 137.139 144.259 137.462C144.374 137.784 144.582 138.014 144.881 138.153C145.181 138.268 145.641 138.326 146.263 138.326C146.333 138.326 146.367 138.395 146.367 138.533C146.367 138.671 146.333 138.74 146.263 138.74C145.734 138.74 145.319 138.729 145.019 138.706L143.153 138.671L141.252 138.706C140.953 138.729 140.538 138.74 140.008 138.74ZM130.712 138.74C130.643 138.74 130.608 138.671 130.608 138.533C130.608 138.395 130.643 138.326 130.712 138.326C131.334 138.326 131.795 138.268 132.094 138.153C132.394 138.014 132.59 137.784 132.682 137.462C132.797 137.139 132.855 136.632 132.855 135.941V129.098C132.855 128.315 132.762 127.751 132.578 127.405C132.394 127.059 132.083 126.887 131.645 126.887C131.276 126.887 130.654 127.059 129.779 127.405H129.71C129.618 127.405 129.549 127.359 129.502 127.267C129.479 127.152 129.514 127.071 129.606 127.025L133.615 125.124C133.661 125.101 133.73 125.089 133.822 125.089C134.03 125.089 134.249 125.354 134.479 125.884C134.709 126.414 134.824 127.094 134.824 127.923V135.941C134.824 136.632 134.871 137.139 134.963 137.462C135.078 137.784 135.285 138.014 135.585 138.153C135.884 138.268 136.345 138.326 136.967 138.326C137.036 138.326 137.071 138.395 137.071 138.533C137.071 138.671 137.036 138.74 136.967 138.74C136.437 138.74 136.023 138.729 135.723 138.706L133.857 138.671L131.956 138.706C131.657 138.729 131.242 138.74 130.712 138.74Z" fill="#1F2B1F"/>
<path d="M73.7256 0V97.3407" stroke="black" stroke-width="1.15196"/>
</svg>
